<?xml version="1.0" standalone="no"?>
<!DOCTYPE svg PUBLIC "-//W3C//DTD SVG 20010904//EN"
 "http://www.w3.org/TR/2001/REC-SVG-20010904/DTD/svg10.dtd">
<svg version="1.0" xmlns="http://www.w3.org/2000/svg"
 width="1024.000000pt" height="1024.000000pt" viewBox="0 0 1024.000000 1024.000000"
 preserveAspectRatio="xMidYMid meet">
<metadata>
Created by potrace 1.11, written by Peter Selinger 2001-2013
</metadata>
<g transform="translate(0.000000,1024.000000) scale(0.100000,-0.100000)"
fill="#000000" stroke="none">
<path d="M3852 9960 c-95 -21 -138 -36 -324 -113 -219 -91 -367 -200 -490
-362 -127 -166 -199 -351 -220 -560 l-12 -110 -135 0 c-128 -1 -141 -3 -219
-32 -224 -85 -387 -271 -437 -499 -32 -143 -14 -286 58 -464 5 -11 -11 -25
-54 -50 -71 -40 -197 -142 -252 -203 -293 -322 -400 -742 -291 -1147 57 -217
147 -372 314 -541 121 -123 193 -177 319 -239 176 -89 336 -125 546 -124 259
1 459 61 681 204 20 12 26 10 70 -29 85 -74 219 -140 337 -166 l27 -5 0 -768
c0 -422 -3 -824 -7 -894 -6 -118 -7 -126 -24 -118 -10 6 -29 10 -42 10 -21 0
-25 6 -31 40 -10 66 -76 128 -153 144 -82 18 -182 -50 -204 -139 -10 -40 -15
-45 -39 -45 -62 0 -122 -87 -100 -145 9 -24 8 -30 -6 -38 -10 -6 -29 -22 -42
-36 -75 -80 -69 -209 13 -287 35 -32 35 -34 13 -38 -13 -3 -104 -21 -203 -41
-659 -134 -1356 -354 -1955 -620 -395 -175 -973 -487 -955 -515 3 -6 -3 -10
-14 -10 l-21 0 0 -1010 0 -1010 1762 2 1763 3 475 237 c807 402 1279 676 1680
976 178 133 403 350 468 452 56 87 116 242 141 367 26 125 28 323 5 443 -49
261 -196 520 -430 757 l-121 123 101 -5 c56 -3 96 -3 90 0 -7 4 5 37 33 93 60
119 75 218 50 335 -29 143 -109 264 -219 334 -38 24 -43 31 -37 53 22 79 0
188 -54 266 -37 53 -112 101 -177 112 -42 7 -43 8 -57 61 -57 223 -270 369
-484 333 -40 -7 -102 -30 -164 -62 -90 -44 -108 -50 -165 -50 -127 -1 -218
-75 -241 -195 -7 -36 1 -106 15 -145 4 -10 -9 -23 -43 -42 -56 -31 -103 -92
-121 -157 -7 -27 -9 -76 -5 -130 6 -85 6 -86 -20 -104 -15 -11 -29 -16 -33
-12 -4 4 -8 350 -10 769 l-4 762 64 38 c35 20 91 61 123 90 l59 53 84 -55
c146 -95 328 -159 515 -182 49 -6 170 -11 270 -12 214 0 329 19 494 83 180 70
315 162 457 310 376 390 463 983 215 1470 -114 224 -254 376 -472 512 -48 31
-92 57 -97 59 -5 2 0 39 11 83 26 108 25 263 -1 372 -77 321 -330 549 -642
578 l-76 7 -12 65 c-40 231 -159 454 -330 617 -150 142 -311 234 -498 283
-137 36 -374 42 -510 13z"/>
<path d="M5985 3340 c107 -26 413 -159 578 -251 494 -274 839 -616 1042 -1034
94 -193 143 -346 180 -558 50 -293 34 -724 -41 -1094 -22 -110 -82 -341 -99
-385 -7 -17 59 -18 1294 -18 l1301 0 0 1010 c0 891 -2 1010 -15 1010 -8 0 -15
6 -15 14 0 25 -391 245 -695 392 -866 418 -1824 704 -2839 849 -253 36 -620
76 -683 74 -38 -1 -38 -1 -8 -9z"/>
</g>
</svg>
