<?xml version="1.0" encoding="utf-8"?>
<!-- Generator: Adobe Illustrator 22.0.1, SVG Export Plug-In . SVG Version: 6.00 Build 0)  -->
<svg version="1.1" id="Layer_1" xmlns="http://www.w3.org/2000/svg" xmlns:xlink="http://www.w3.org/1999/xlink" x="0px" y="0px"
	 viewBox="0 0 319.8 319.8" style="enable-background:new 0 0 319.8 319.8;" xml:space="preserve">
<style type="text/css">
	.st0{fill:#DC4844;}
	.st1{fill:#A53434;}
	.st2{fill:#CCE2A1;}
	.st3{fill:#A1AF7E;}
</style>
<g>
	<path class="st0" d="M319.8,159.9c0,88.3-71.6,159.9-159.9,159.9S0,248.2,0,159.9S71.6,0,159.9,0S319.8,71.6,319.8,159.9"/>
	<path class="st1" d="M319.8,159.9c0-16.2-2.4-31.8-6.9-46.6l-48-28.8c-71,10-125,98-125,98c-11,90-78.6,85.3-78.6,85.3l86.4,51.5
		c4,0.3,8.1,0.5,12.2,0.5C248.2,319.8,319.8,248.2,319.8,159.9"/>
	<path class="st2" d="M180.7,137.2c-5.3,6.2-9.5,13.3-12.5,20.9c7.9,1.5,18.3,1.8,20.9,11.2c3.2,11.6-11.8,15.4-11.3,24.9
		c0.2,5.1,15.3,12.6,13.6,16.1c-3.7,7.7-7.3-4.6-10.7-3.1c0.5,2.2,5.7,12.5-0.3,11.2c-3.9-0.9-3.3-7.1-5-10
		c-1.7,3.1,0.6,11.1-4.5,11.1c-5.3,0-1.2-8.5-1.5-11c-4.6,1.6-12.1,12.9-8.2-0.5c1.9-6.5,14.4-18.9,11-26.8
		c-4.4-10.3-10.9,2.7-12.4,7.2c-3.5,10.5-4.3,21.7-8.3,32.1c-6.9,17.9-19.6,35.1-37.1,43.6c-8.7,4.2-18.3,6.3-27.9,6.5
		c-4.4,0.1-32-1.4-31.3-7.2c19.4-2.7,39.7-4.4,54.4-19c13.5-13.4,16.3-32.3,19.2-50.3c0.9-5.8,4.1-15.3-2.2-19.4
		c-8.3-5.4-8.9,3.9-8.4,10c0.5,5.7,6.5,16.8,5.5,21.9c-2,10.1-7.1-2.9-9.1-4.4c-0.5,2,0.5,13.2-4.7,9.8c-3.6-2.3,0.5-7.9-1-11.5
		c-1.4,1.2-4.7,12.2-8.4,8.6c-3.6-3.4,2.2-7.9,3.6-11c-1.5-1.2-16.2,9.2-9.4-2.2c2.7-4.5,13.6-3.5,15.2-10.4
		c1.9-8.3-9.3-14.8-5.5-24.5c4.8-12.1,19.8-8.5,28.8-4.1c5.8-23.2,18.2-44.2,39.1-56.8c-5.7-6.6-13.2-15.3-8.7-24.7
		c6.9-14.4,17.7-1.8,27.2-6.3c6.6-3.1,3.7-12.2,7.2-17c6.1-8.3,3.9,1,4.2,6.8c2.8-1.5,5.8-9.4,9.7-6.1c4.1,3.5-4.4,8-6.3,9.8
		c3.1,4.4,7.5-5.2,11.6-1.8c4.9,4-6.2,6.5-8.2,7.2c2,3.8,9.9-0.5,10.1,4.8c0.2,4.8-14.2,2.8-16.7,3c-4.5,0.4-17.4,0.7-19.3,6.4
		c-2,6.1,9.4,10.7,13.6,10.9c15.3,0.7,17.4-16.7,32.2-15.8c8.9,0.5,31.4-2.6,35.1,7c3.6,9.6-14.8,26.2-21.5,31.7
		c-11.7,9.4-22.3-5.8-34.4,0.9c-3.2,1.8-10.9,10.7-7.1,15c3.6,4.1,17.3-0.4,21.3-2c3.3-1.2,12.1-8.1,15.1-4.3
		c2.7,3.5-5.2,6.1-6.8,7.9c2.4,0.7,12.3-1.4,10.2,3.7c-1.4,3.6-8.4,0.9-11.4,2.5c1.7,1.5,13.2,4,8.9,7.9c-2.7,2.4-7.7-1.9-11-2.2
		c1.4,3.2,8.5,15.8-1.2,8.3c-3.7-2.9-4.7-11.6-10.5-13.1c-6.5-1.6-12.6,6.7-19,7.9C187.7,150.5,183.4,145.2,180.7,137.2"/>
	<path class="st3" d="M138,220.1c-8.4,24.2-24.5,34.3-24.7,34.5c-20.7,14.9-49.4,10.9-58.1,9.3c0.4,5.6,27,7,31.3,6.9
		c9.6-0.3,19.2-2.3,27.9-6.5c17.5-8.5,30.2-25.8,37.1-43.6c4-10.4,4.7-21.6,8.3-32.1c1.5-4.5,8-17.5,12.4-7.2
		c3.3,7.9-9.1,20.3-11,26.8c-4,13.3,3.6,2,8.2,0.5c0.3,2.4-3.8,11,1.5,11c5.1,0,2.8-8,4.5-11.1c1.7,2.9,1.1,9.1,5,10
		c6,1.3,0.8-9,0.3-11.2c3.4-1.5,7,10.8,10.7,3.1c1.7-3.5-13.4-11-13.6-16.1c-0.4-9.5,14.5-13.3,11.4-24.9
		c-2.6-9.4-12.9-9.6-20.9-11.2c3-7.6,7.2-14.8,12.5-20.9c2.7,8,7,13.2,16.1,11.6c6.4-1.2,12.5-9.5,19-7.9
		c5.8,1.4,6.8,10.2,10.5,13.1c9.7,7.5,2.6-5.1,1.2-8.3c3.2,0.3,8.3,4.6,11,2.2c4.3-3.8-7.2-6.4-8.9-7.9c3-1.5,9.9,1.1,11.4-2.5
		c2-5.1-7.9-3-10.2-3.7c1.6-1.8,9.5-4.4,6.8-7.9c-3-3.8-11.8,3-15.1,4.3c-4.1,1.5-17.7,6.1-21.3,2c-3.8-4.3,3.9-13.2,7.1-15
		c12.1-6.7,22.7,8.5,34.4-0.9c6.8-5.5,25.2-22.1,21.5-31.7c-0.1-0.2-0.2-0.3-0.2-0.5c-18.4,12.2-61.2,26.2-61.2,26.2
		C147.1,125.1,143.6,203.9,138,220.1"/>
	<path class="st3" d="M130.6,168.3l-4-1c-15.8-0.9-10.1,13.6-8.4,17.2c-0.4-6.2,0.4-15,8.4-9.7c3.5,2.3,4.1,6.3,3.7,10.5
		C134.1,170.3,130.6,168.3,130.6,168.3"/>
	<path class="st3" d="M178.6,98.3c-10-5-16.4-17.8-16.4-17.8c-0.5,7.4,5.2,14.1,9.8,19.5L178.6,98.3z"/>
	<path class="st3" d="M241.2,83.8c0,1.5-2.1,2.7-4.7,2.7c-2.6,0-4.7-1.2-4.7-2.7s2.8-1.3,5.3-1.3C239.7,82.5,241.2,82.3,241.2,83.8"
		/>
	<path class="st2" d="M243.1,103.2c0.7,1.3,3.1,1.3,5.4,0c2.2-1.3,3.5-3.3,2.8-4.6c-0.7-1.3-3.1,0.2-5.3,1.4
		C243.7,101.3,242.4,101.9,243.1,103.2"/>
</g>
</svg>
