<?xml version="1.0" encoding="utf-8"?>
<!-- Generator: Adobe Illustrator 22.0.1, SVG Export Plug-In . SVG Version: 6.00 Build 0)  -->
<svg version="1.1" id="Layer_1" xmlns="http://www.w3.org/2000/svg" xmlns:xlink="http://www.w3.org/1999/xlink" x="0px" y="0px"
	 viewBox="0 0 311.1 311.1" style="enable-background:new 0 0 311.1 311.1;" xml:space="preserve"
     preserveAspectRatio="xMinYMid">
<style type="text/css">
	.st0{fill:#FFD25E;}
	.st1{fill:#E0A851;}
	.st2{fill:#6D913D;}
	.st3{fill-rule:evenodd;clip-rule:evenodd;fill:#FFE600;}
	.st4{fill:#6E913D;}
	.st5{fill:#87BA40;}
	.st6{fill-rule:evenodd;clip-rule:evenodd;fill:#404D51;}
	.st7{fill-rule:evenodd;clip-rule:evenodd;fill:#283233;}
	.st8{fill:#CAB09A;}
</style>
<path class="st0" d="M236.4,311.1H74.7C33.4,311.1,0,277.7,0,236.4V74.7C0,33.4,33.4,0,74.7,0h161.8c41.2,0,74.7,33.4,74.7,74.7
	v161.8C311.1,277.7,277.7,311.1,236.4,311.1z"/>
<g>
	<path class="st1" d="M144.2,14.9c0,0-36.2,89.5-38.9,92.6l6.8,5.9c-14.8,9.2-53.4,23.3-53.4,23.3l202.5,166.2
		c13.7-6.2,28-15.2,38.4-26.7c7.3-11.5,11.5-25.1,11.5-39.8v-84.5L144.2,14.9z"/>
	<g>
		<g>
			<path class="st2" d="M63.6,71.5c0.1-0.1,0.2-0.1,0.3-0.2c-0.5-0.9-0.9-1.9-1.3-2.9C62.9,69.4,63.2,70.5,63.6,71.5z"/>
		</g>
	</g>
	<g>
		<g>
			<g>
				<path class="st2" d="M130.1,187c0,0,0.1-0.1,0.1-0.1c-0.2-0.4-0.4-0.8-0.5-1.2C129.8,186.2,129.9,186.6,130.1,187z"/>
			</g>
		</g>
	</g>
</g>
<g>
	<path class="st3" d="M266.1,141.2c-1-1-1.8-1.4-3-1.6c-6.7-0.9-16.6,13.8-16.9,28c-11.2-8.9-28.8-10.6-32.4-4.9
		c-0.6,1-0.8,1.9-0.7,3.3c1.3,11.8,11.1,17.3,15.3,18.3c4.6,1.2,13.1-0.4,13.1-0.4s-7.3,12.3,0.1,15.5c6.3,2.7,10.6,1.3,12.4-7.1
		c0.5-2.3-0.1-6.2-0.9-10c2.4,3.1,5,6,7.1,7.1c7.6,4,11.5,1.6,13.4-5c2.2-7.7-11.9-9.9-11.9-9.9s6.6-5.5,8.7-9.8
		C272.3,160.8,274.3,149.7,266.1,141.2z"/>
	<g>
		<path class="st3" d="M241.5,141.8c-2.8,6.7,3.1,20.5,3.1,20.5s-1.7-8-1.2-13.5C243.9,143.4,244.3,135.1,241.5,141.8z"/>
		<path class="st3" d="M233.5,153.5c4.5,3.1,9.6,9.5,9.6,9.5s-6.8-13.3-13.8-15.5C222.4,145.4,229,150.4,233.5,153.5z"/>
	</g>
</g>
<g>
	<path class="st4" d="M179,69.8c0.9-2.5,1.4-5.3,1.4-8.1c0-12.8-9.7-23.2-21.6-23.2c-0.3,0-0.6,0-1,0C156,21.3,141.5,7.8,123.9,7.8
		c-18.9,0-34.2,15.5-34.2,34.6S105.1,77,123.9,77c5.8,0,11.2-1.5,16-4c0.1,0.2,0.2,0.3,0.3,0.5c-9.7,7-16,18.5-16,31.5
		c0,21.4,17.2,38.8,38.3,38.8c21.2,0,38.3-17.4,38.3-38.8C201,89.4,192,76,179,69.8z"/>
	<path class="st5" d="M173.6,73.2c1.4-2.8,2.2-6,2.2-9.4c0-11.5-9.3-20.9-20.9-20.9c-1.2,0-2.3,0.1-3.5,0.3c0-0.1,0-0.2,0-0.3
		c0-18.3-14.8-33.1-33.1-33.1c-18.3,0-33.1,14.8-33.1,33.1c0,0.1,0,0.2,0,0.4c-1.3-0.2-2.5-0.4-3.9-0.4c-11.5,0-20.9,9.3-20.9,20.9
		c0,3.6,0.9,7,2.6,10c-11.7,6.2-19.7,18.6-19.7,32.8c0,20.5,16.6,37.1,37.1,37.1c8,0,15.4-2.5,21.4-6.8c4.1,4.2,9.8,6.8,16.1,6.8
		c6.7,0,12.7-2.9,16.8-7.6c6.2,4.7,14,7.6,22.4,7.6c20.5,0,37.1-16.6,37.1-37.1C194.5,91.9,186,79.2,173.6,73.2z"/>
	<path class="st4" d="M127.4,127.4l50.2-40.1l-52.3,29.1l-1-15.4L135.2,73l-11.6,17.8l-2.5-39l-2,30.6l-10.3-10.3l10,15.4L118,99.4
		l0,0.1l0,0l-1.1,17l-27.2-13.1l25.1,24c0,0,0,43.6-0.2,58.1c-0.2,10-1.3,27.1-1.3,27.1h16.4c0,0-1.8-17.2-2.1-27.2
		C127.2,170.9,127.4,127.4,127.4,127.4z"/>
	<g>
		<path class="st4" d="M174.6,185.3c0.3-1,0.5-2.1,0.5-3.2c0-5-3.7-9.1-8.2-9.1c-0.1,0-0.2,0-0.4,0c-0.7-6.8-6.3-12.1-13-12.1
			c-7.2,0-13,6.1-13,13.6c0,7.5,5.8,13.6,13,13.6c2.2,0,4.3-0.6,6.1-1.6c0,0.1,0.1,0.1,0.1,0.2c-3.7,2.8-6.1,7.3-6.1,12.4
			c0,8.4,6.6,15.3,14.7,15.3c8.1,0,14.7-6.8,14.7-15.3C183,193,179.6,187.7,174.6,185.3z"/>
		<path class="st5" d="M172.5,186.6c0.5-1.1,0.8-2.4,0.8-3.7c0-4.5-3.6-8.2-8-8.2c-0.5,0-0.9,0-1.3,0.1c0,0,0-0.1,0-0.1
			c0-7.2-5.7-13-12.6-13c-7,0-12.6,5.8-12.6,13c0,0,0,0.1,0,0.1c-0.5-0.1-1-0.1-1.5-0.1c-4.4,0-8,3.7-8,8.2c0,1.4,0.4,2.8,1,3.9
			c-4.5,2.5-7.5,7.3-7.5,12.9c0,8.1,6.3,14.6,14.2,14.6c3.1,0,5.9-1,8.2-2.7c1.6,1.7,3.7,2.7,6.2,2.7c2.6,0,4.9-1.1,6.4-3
			c2.4,1.9,5.4,3,8.6,3c7.8,0,14.2-6.5,14.2-14.6C180.5,194,177.3,189,172.5,186.6z"/>
		<path class="st5" d="M134,171.5c0-4.1,3.3-7.3,7.3-7.3l0,0c4.1,0,7.3,3.3,7.3,7.3l0,0c0,4.1-3.3,7.3-7.3,7.3l0,0
			C137.3,178.9,134,175.6,134,171.5L134,171.5z"/>
	</g>
	<g>
		<path class="st5" d="M115.4,202.3c0.2-0.5,0.4-1,0.4-1.6c0-2-1.6-3.6-3.6-3.6c-0.2,0-0.4,0-0.6,0c0,0,0,0,0,0
			c0-3.1-2.5-5.7-5.7-5.7c-3.1,0-5.7,2.5-5.7,5.7c0,0,0,0,0,0.1c-0.2,0-0.4-0.1-0.7-0.1c-2,0-3.6,1.6-3.6,3.6c0,0.6,0.2,1.2,0.4,1.7
			c-2,1.1-3.4,3.2-3.4,5.6c0,3.5,2.8,6.4,6.4,6.4c1.4,0,2.6-0.4,3.7-1.2c0.7,0.7,1.7,1.2,2.8,1.2c1.1,0,2.2-0.5,2.9-1.3
			c1.1,0.8,2.4,1.3,3.8,1.3c3.5,0,6.4-2.8,6.4-6.4C119,205.5,117.5,203.3,115.4,202.3z"/>
	</g>
</g>
<g>
	<path class="st6" d="M155.6,208.4c-59.1,0-113.1,15.3-154.5,40.6c6,35.2,36.6,62.1,73.6,62.1h80.9h80.9c36.9,0,67.6-26.8,73.6-62.1
		C268.7,223.8,214.7,208.4,155.6,208.4z"/>
	<path class="st7" d="M183.7,209.6c-0.3,0.2-0.9,0.2-1.9-0.2c-0.1,0-0.2,0-0.2,0c-2.5-0.2-4.9-0.4-7.4-0.5
		c7.6,6.4,25,24.4,14.3,48.5c-3.7,8.2-16.4,18-32.8,27.9c-14.8,8.9-32.5,17.9-49.2,25.7h49.2h80.9c36.9,0,67.6-26.8,73.6-62.1
		C275.3,227.8,231.7,213.7,183.7,209.6z"/>
	<path class="st8" d="M181.7,209.5c-2.5-0.2-5.1-0.4-7.6-0.5c7.6,6.4,25,24.4,14.3,48.5c-3.7,8.2-16.4,18-32.8,27.9
		c-14.8,8.9-32.5,17.9-49.2,25.7h49.2h76.6c3.3-10,5.4-21.4,5.4-34C237.5,233.8,200.6,215.8,181.7,209.5z"/>
</g>
</svg>
