<?xml version="1.0" encoding="utf-8"?>
<!-- Generator: Adobe Illustrator 22.0.1, SVG Export Plug-In . SVG Version: 6.00 Build 0)  -->
<svg version="1.1" id="Layer_1" xmlns="http://www.w3.org/2000/svg" xmlns:xlink="http://www.w3.org/1999/xlink" x="0px" y="0px"
	 viewBox="0 0 319.8 319.8" style="enable-background:new 0 0 319.8 319.8;" xml:space="preserve">
<style type="text/css">
	.st0{fill:#FFD15F;}
	.st1{fill:#E2A852;}
	.st2{fill:#A53434;}
	.st3{fill:#DC4844;}
</style>
<g>
	<path class="st0" d="M319.8,159.9c0,88.3-71.6,159.9-159.9,159.9S0,248.2,0,159.9S71.6,0,159.9,0S319.8,71.6,319.8,159.9"/>
	<path class="st1" d="M316.8,129.3l-91.5-53.2L95.5,242.4l115.4,69c63.3-21.3,108.8-81.1,108.8-151.5
		C319.8,149.4,318.7,139.2,316.8,129.3"/>
	<path class="st2" d="M156.9,159.1c3.3-0.7,6.7-1.2,10.2-1.2c1.9,0,3.8,0.2,5.7,0.4c3.1-12.3,9-35.9,13.3-51.5
		c8.5-30.6,3.6-55.6-23.8-54.5C121.4,54,136.8,100,136.8,100L156.9,159.1z"/>
	<path class="st2" d="M156.9,159.6c3.3,0.7,6.7,1.2,10.2,1.2c1.9,0,3.8-0.2,5.7-0.4c3.1,12.3,9,35.9,13.3,51.5
		c8.5,30.6,3.6,55.6-23.8,54.5c-40.9-1.7-25.5-47.7-25.5-47.7L156.9,159.6z"/>
	<path class="st2" d="M162.2,154.4c0.7,3.3,1.2,6.7,1.2,10.2c0,1.9-0.2,3.8-0.4,5.7c12.3,3.1,35.9,9,51.5,13.3
		c30.6,8.5,55.6,3.6,54.5-23.8c-1.7-40.9-47.7-25.5-47.7-25.5L162.2,154.4z"/>
	<path class="st2" d="M161.6,154.4c-0.7,3.3-1.2,6.7-1.2,10.2c0,1.9,0.2,3.8,0.4,5.7c-12.3,3.1-35.9,9-51.5,13.3
		c-30.6,8.5-55.6,3.6-54.5-23.8c1.7-40.9,47.7-25.5,47.7-25.5L161.6,154.4z"/>
	<path class="st3" d="M158.6,155.7c2.8,1.8,5.5,3.9,8,6.4c1.4,1.4,2.6,2.8,3.7,4.3c10.8-6.5,31.7-19,45.8-27
		c27.7-15.6,41.9-36.8,21.7-55.4C207.7,56.3,186,99.7,186,99.7L158.6,155.7z"/>
	<path class="st3" d="M158.2,156c1.8,2.8,3.9,5.5,6.4,8c1.4,1.4,2.8,2.6,4.3,3.7c-6.5,10.8-19,31.7-27,45.8
		c-15.6,27.7-36.8,41.9-55.4,21.7c-27.7-30.1,15.6-51.8,15.6-51.8L158.2,156z"/>
	<path class="st3" d="M165.6,156c-1.8,2.8-3.9,5.5-6.4,8c-1.4,1.4-2.8,2.6-4.3,3.7c6.5,10.8,19,31.7,27,45.8
		c15.6,27.7,36.8,41.9,55.4,21.7c27.7-30.1-15.6-51.8-15.6-51.8L165.6,156z"/>
	<path class="st3" d="M165.2,155.7c-2.8,1.8-5.5,3.9-8,6.4c-1.4,1.4-2.6,2.8-3.7,4.3c-10.8-6.5-31.7-19-45.8-27
		C80,123.7,65.8,102.6,86,84c30.1-27.7,51.8,15.6,51.8,15.6L165.2,155.7z"/>
	<path class="st0" d="M183.4,163.1c0,11.8-9.6,21.5-21.5,21.5c-11.8,0-21.5-9.6-21.5-21.5c0-11.8,9.6-21.5,21.5-21.5
		C173.8,141.7,183.4,151.3,183.4,163.1"/>
</g>
</svg>
