<?xml version="1.0" encoding="utf-8"?>
<!-- Generator: Adobe Illustrator 22.0.1, SVG Export Plug-In . SVG Version: 6.00 Build 0)  -->
<svg version="1.1" id="Layer_1" xmlns="http://www.w3.org/2000/svg" xmlns:xlink="http://www.w3.org/1999/xlink" x="0px" y="0px"
	 viewBox="0 0 79 13.5" style="enable-background:new 0 0 79 13.5;" xml:space="preserve"
     preserveAspectRatio="xMinYMid">
<style type="text/css">
	.st0{fill:none;}
	.st1{fill:#FFD25E;}
</style>
<g>
	<rect x="0.2" y="2.4" class="st0" width="84.7" height="16.7"/>
	<path class="st1" d="M0.4,5.6c-0.5-0.4-0.6-1.5,0.2-2.7c1.2-1.7,3.7-1.5,4,0.4c0.3,2,0.3,4.1,0.8,5.9c0.1-0.4,0.4-1.3,1-2.4
		c1.2-2.4,2-3.8,2.5-4.1c0.4-0.3,0.8,0,0.7,0.1c-0.3,0-1.4,1.7-2.3,3.7C6.5,8,5.8,9.6,5.7,10.5c0.4,0.7,0.7,0.4,0.8,0.4
		C6.7,10.8,6.7,11,6.6,11c-0.1,0.2-0.6,0.4-1,0.3c-1.4-0.4-1.9-3.6-2.1-7C3.2,5.2,2.7,6.4,2.3,7.2c-0.8,1.9-1.4,3.4-1.4,3.6
		c-0.2,0.2-0.8,0-0.7-0.4c0.2-0.6,1-2.4,1.4-3.4C1.9,6.5,3,4,3.4,3.1C3,1.7,2.2,2.3,1.7,2.9C0.9,3.8,0.4,5.4,0.6,5.6
		C0.7,5.7,0.5,5.7,0.4,5.6z"/>
	<path class="st1" d="M11.7,6.7c0.3,0.2,0.5,0.5,0.4,0.6c-0.2,0.2-0.3,0.4-0.6,1c-0.3,0.7-0.4,1.2-0.2,1.1c0.4,0,2.1-2,2.3-2.5
		c0.2-0.2,0.5-0.1,0.3,0.1c-0.3,0.5-1.4,2.2-2.1,2.6c-0.6,0.4-1.2,0.1-1.5-0.3c-0.2-0.2-0.1-0.9,0.1-1.3C10.1,8.7,9.4,9.7,8.8,10
		c-0.3,0.2-1.3-0.4-1.3-0.8C7.4,8.6,7.8,7.4,8.7,6.5c0.9-1,1.6-1.3,2.1-1.4c0.6-0.1,1.9,0.8,1.8,1.2C12.5,6.5,12,6.7,11.7,6.7z
		 M11.5,6.6c0-0.3,0.4-0.8,0.2-1c-0.2-0.2-1.3,0.5-2.1,1.5C8.5,8.6,8.3,9.4,8.5,9.4c0.3,0.1,2.2-2,2.6-2.8
		C11.2,6.5,11.4,6.5,11.5,6.6z"/>
	<path class="st1" d="M15.5,5.4c0.5,0,0.9,0,1,0.1c0.1,0.2,0,0.4-0.2,0.4c-0.1,0-0.5-0.1-1-0.1c-0.1,0.2-0.2,0.3-0.2,0.5
		c-0.6,1.5-1.3,3.4-0.7,3.2c0.4-0.2,2-2,2.3-2.5c0.2-0.2,0.4-0.1,0.3,0.2c-0.3,0.5-1.7,2.5-2.3,2.8c-0.4,0.2-1.5-0.1-1.6-0.8
		c-0.1-0.6,0.2-1.6,1.1-3.3c-0.3,0-0.5,0-0.5,0c-0.2,0-0.2-0.3,0-0.4c0.1,0,0.3,0,0.7,0c0.7-1.4,1.1-1.9,1.2-2.2
		c0.4-0.1,0.9,0.3,0.9,0.6C16.3,4,15.9,4.7,15.5,5.4z"/>
	<path class="st1" d="M16.6,9.5C17,9.5,19.8,6,19.9,5.8c0.2-0.2,1.1,0.1,0.9,0.5c-0.3,0.4-1.6,3.1-1.2,3.2c0.3,0.1,2-1.9,2.4-2.5
		c0.2-0.2,0.4,0,0.3,0.2c-0.3,0.5-1.6,2.6-2.3,2.7c-0.6,0.1-1.3-0.4-1.4-0.8c-0.1-0.5,0.1-0.9,0.2-1.1c-0.1,0.2-0.9,1.4-1.8,1.9
		c-0.5,0.3-1.4-0.2-1.3-0.9c0.2-1.2,1.8-3.2,1.8-3.5c0.2-0.2,1,0.2,1,0.5C18.2,6.3,16.2,9.4,16.6,9.5z"/>
	<path class="st1" d="M24.1,5.7c0.4,0,0.9,0.4,0.5,0.9c-0.6,0.8-1.4,2.7-1.1,2.8c0.3,0.1,2-1.8,2.4-2.5c0.2-0.2,0.4-0.1,0.3,0.1
		c-0.3,0.6-1.4,2.1-2.1,2.7c-0.5,0.4-1.5,0-1.6-0.7c-0.2-0.9,0.8-2.4,1.1-2.8C23.6,6.1,23.4,6,23.1,6c-0.3,0.5-0.9,1.2-1.3,1.9
		c-0.2,0.2-0.5,0-0.4-0.1c0.3-0.4,0.9-1.3,1.2-1.8c-0.1,0-0.3-0.1-0.3-0.2c-0.1-0.4,0.4-1.5,0.7-1.6c0.3-0.1,0.8,0.2,0.7,0.4
		c0,0.2-0.3,0.8-0.5,1.1C23.2,5.7,23.6,5.7,24.1,5.7z"/>
	<path class="st1" d="M26.5,8.3c-0.1,0.2-0.2,0.4-0.2,0.6c0,0.5,0.3,0.7,0.6,0.7c0.5,0,1.4-0.8,1.9-1.4c0.1-0.1,0.3,0,0.3,0.1
		C28.7,8.9,28,9.8,27.6,10c-0.8,0.4-1.9-0.2-2.2-1c-0.5-1.2,0.9-3.3,2-3.8c0.9-0.4,2,0.5,1.8,1.2C29.1,7,27.4,7.9,26.5,8.3z
		 M26.7,7.7c0.6-0.4,1.3-1,1.6-1.4C28.7,5.8,28.4,5.6,28,6C27.6,6.4,27.1,7,26.7,7.7z"/>
	<path class="st1" d="M33.8,6c-1.5,2.7-1.2,4.6-0.1,4.6c1.4,0,3.6-2.6,4.3-3.6c0.2-0.2,0.4,0,0.3,0.2c-0.3,0.7-2.1,3.1-3.4,3.7
		c-1,0.5-2.1,0.1-2.7-0.4c-0.7-0.6-1.1-2,0-4.1c1.3-2.6,3.3-4.2,4.2-4.2c0.6-0.1,2.3,0.7,2,1.4C38,4.3,37.4,4.7,37.1,5
		c-0.3,0.2-0.6,0.1-0.4-0.2c0.2-0.3,1.2-1.8,0.9-2C36.9,2,34.6,4.5,33.8,6z"/>
	<path class="st1" d="M40.7,5.8c0.4,0,0.9,0.3,0.9,0.9c0,0.4-0.3,1.2-0.8,2c0.9-0.1,1.9-1.7,2.1-1.9c0.1-0.2,0.4-0.1,0.3,0.2
		c-0.1,0.2-0.7,1.4-1.6,1.9c-0.3,0.2-0.7,0.3-1,0.2c-0.3,0.4-0.7,0.7-1.1,0.9c-0.8,0.3-2-0.5-2.1-1.4c-0.1-1.3,1.1-3.4,2.3-3.6
		C40,5.1,40.6,5.4,40.7,5.8C40.7,5.8,40.7,5.8,40.7,5.8z M39,6.8c-0.5,0.7-0.8,1.6-0.8,2.4c0,0.6,0.4,0.4,0.7,0.2
		c0.2-0.2,0.5-0.4,0.7-0.6c-0.1-0.1-0.1-0.1-0.2-0.2c-0.3-0.4-0.3-0.9-0.2-1.4c0.1-0.5,0.6-1.4,1.3-1.4C39.8,5.7,39.4,6.2,39,6.8z
		 M39.9,8.5c0.5-0.6,0.9-1.4,1-2.1c0-0.4-0.4-0.3-0.7,0.2C39.7,7.2,39.5,8,39.9,8.5z"/>
	<path class="st1" d="M42.8,8.5c0,0,1.9-2.7,2.8-3c0.3-0.1,1,0.1,1,0.6c-0.1,0.6-0.6,1.6-0.9,2.1c0,0,1.8-2.2,2.7-2.6
		c0.5-0.2,1,0.2,1,0.7c-0.3,0.6-1.5,3-1.3,3.1c0.2,0.1,2-2,2.4-2.5C50.9,6.7,51,7,50.9,7.1c-0.2,0.5-1.6,2.5-2.2,2.7
		c-0.6,0.3-1.5-0.2-1.5-0.7c0-0.9,1.1-2.6,1-2.7c-0.3-0.1-2.8,2.9-3,3.3c-0.2,0.3-1.2-0.1-1-0.5c0.2-0.4,1.5-3,1.2-3
		c-0.3,0-2.8,3-2.9,3.5c-0.2,0.2-1.2-0.2-1.2-0.5c0-0.5,1.8-3.2,1.9-3.8c0.2-0.2,0.9,0.1,0.9,0.4C44.2,6.4,42.9,8.4,42.8,8.5z"/>
	<path class="st1" d="M51.6,7c0.2-0.3,0.9-1.5,1.7-1.8c0.6-0.2,1.1,0.5,1.2,0.9c0.1,0.8-0.7,2.5-1.7,3.4c1-0.3,2-1.5,2.7-2.5
		c0.2-0.3,0.5,0,0.3,0.2c-0.3,0.6-1.4,2.1-2.4,2.5c-1.1,0.5-2.1,0.3-3-0.1c-0.7,1.5-1,2.4-1.2,3.5c-0.4,0.2-1.1-0.1-1-0.6
		c0.1-0.6,0.6-1.7,1.2-3.3c0.7-1.7,2-4,2-4.4c0.2-0.2,1.1,0.1,1,0.4C52.3,5.6,51.9,6.4,51.6,7z M50.7,9.3c0.2,0.1,0.5,0.1,0.7,0.1
		c0.8-0.2,2.6-3.6,2.1-3.7C53,5.7,51.5,8.1,50.7,9.3z"/>
	<path class="st1" d="M58.9,6.7c0.3,0.2,0.5,0.5,0.4,0.6c-0.2,0.2-0.3,0.4-0.6,1c-0.3,0.7-0.4,1.2-0.2,1.1c0.4,0,2.1-2,2.3-2.5
		c0.2-0.2,0.5-0.1,0.3,0.1c-0.3,0.5-1.4,2.2-2.1,2.6c-0.6,0.4-1.2,0.1-1.5-0.3c-0.2-0.2-0.1-0.9,0.1-1.3C57.4,8.7,56.6,9.7,56,10
		c-0.3,0.2-1.3-0.4-1.3-0.8c-0.1-0.6,0.4-1.8,1.2-2.7c0.9-1,1.6-1.3,2.1-1.4c0.6-0.1,1.9,0.8,1.8,1.2C59.7,6.5,59.2,6.7,58.9,6.7z
		 M58.8,6.6c0-0.3,0.4-0.8,0.2-1c-0.2-0.2-1.3,0.5-2.1,1.5c-1.1,1.5-1.3,2.3-1.1,2.4c0.3,0.1,2.2-2,2.6-2.8
		C58.4,6.5,58.6,6.5,58.8,6.6z"/>
	<path class="st1" d="M61.4,8.2c0,0,1.8-2.4,2.7-2.7c0.5-0.2,1.3,0.3,1.1,0.9c-0.3,1-1.6,3.2-1.1,3.1c0.3,0,1.6-1.4,2.4-2.5
		c0.2-0.2,0.3,0,0.3,0.2c-0.6,1-1.5,2.1-2.1,2.6c-0.6,0.4-1.7-0.1-1.7-0.8c0.1-1.2,1.4-2.8,1.2-2.9c-0.5,0-3.1,3.2-3.2,3.6
		c-0.3,0.3-1.2-0.1-1.1-0.5s1.6-3.2,1.7-3.7c0.3-0.2,0.9,0.2,0.9,0.4C62.3,6.4,61.4,8.2,61.4,8.2z"/>
	<path class="st1" d="M67.9,6.2c0,0.3-0.3,0.5-0.7,1.3c-0.7,1.3-0.8,2.1-0.4,2c0.5-0.1,2-1.9,2.4-2.5c0.2-0.3,0.5-0.1,0.4,0.1
		c-0.4,0.8-1.5,2.2-2.2,2.7c-0.6,0.4-1.3,0-1.5-0.3c-0.3-0.3-0.3-0.9,0.2-2.1c0.5-1,0.9-1.4,0.9-1.8C67.1,5.5,67.9,5.8,67.9,6.2z
		 M68,4.8c-0.4-0.1-0.4-0.5,0-0.8c0.3-0.2,0.8-0.3,1.1,0c0.2,0.2-0.1,0.6-0.3,0.7C68.5,4.8,68.4,4.8,68,4.8z"/>
	<path class="st1" d="M71.9,5.8c0.4,0,0.9,0.3,0.9,0.9c0,0.4-0.3,1.2-0.8,2c0.9-0.1,1.9-1.7,2.1-1.9c0.1-0.2,0.4-0.1,0.3,0.2
		c-0.1,0.2-0.7,1.4-1.6,1.9c-0.3,0.2-0.7,0.3-1,0.2c-0.3,0.4-0.7,0.7-1.1,0.9c-0.8,0.3-2-0.5-2.1-1.4c-0.1-1.3,1.1-3.4,2.3-3.6
		C71.1,5.1,71.7,5.4,71.9,5.8C71.9,5.8,71.9,5.8,71.9,5.8z M70.1,6.8c-0.5,0.7-0.8,1.6-0.8,2.4c0,0.6,0.4,0.4,0.7,0.2
		c0.2-0.2,0.5-0.4,0.7-0.6c-0.1-0.1-0.1-0.1-0.2-0.2c-0.3-0.4-0.3-0.9-0.2-1.4c0.1-0.5,0.6-1.4,1.3-1.4C71,5.7,70.5,6.2,70.1,6.8z
		 M71,8.5c0.5-0.6,0.9-1.4,1-2.1c0-0.4-0.4-0.3-0.7,0.2C70.9,7.2,70.7,8,71,8.5z"/>
	<path class="st1" d="M74.4,8.2c0,0,1.8-2.4,2.7-2.7c0.5-0.2,1.3,0.3,1.1,0.9c-0.3,1-1.7,3.5-1.1,3.4c0.3,0,1.1-0.8,1.5-1.4
		c0.2,0,0.2,0,0.2,0.2c-0.1,0.4-0.5,1.3-1.1,1.7c-0.6,0.3-1.8-0.4-1.7-1.1c0.2-1.2,1.4-3,1.2-3c-0.5,0-3.1,3.2-3.2,3.6
		c-0.3,0.3-1.2-0.1-1.1-0.5c0.1-0.3,1.6-3.2,1.7-3.7c0.3-0.2,0.9,0.2,0.9,0.4C75.3,6.4,74.4,8.2,74.4,8.2z"/>
</g>
</svg>
