<?xml version="1.0" encoding="utf-8"?>
<!-- Generator: Adobe Illustrator 22.0.1, SVG Export Plug-In . SVG Version: 6.00 Build 0)  -->
<svg version="1.1" id="Layer_1" xmlns="http://www.w3.org/2000/svg" xmlns:xlink="http://www.w3.org/1999/xlink" x="0px" y="0px"
	 viewBox="0 0 319.8 319.8" style="enable-background:new 0 0 319.8 319.8;" xml:space="preserve">
<style type="text/css">
	.st0{fill:#CBE1A1;}
	.st1{fill:#A1AF7F;}
	.st2{fill:#3F4E51;}
	.st3{fill:#283233;}
</style>
<g>
	<g>
		<path class="st0" d="M319.8,159.9c0,88.3-71.6,159.9-159.9,159.9S0,248.2,0,159.9S71.6,0,159.9,0S319.8,71.6,319.8,159.9"/>
		<path class="st1" d="M309,102L184,27.2l47,85L69.6,257.7l102,61.7c82.8-6,148.2-75.1,148.2-159.5C319.8,139.5,315.9,120,309,102z"
			/>
	</g>
	<g>
		<path class="st2" d="M191.8,232.8c-8.2,3-16.4,5.9-24.6,8.9c4.8,0.6,9.8,0.9,14.6,1.8c6.3,1.2,12.7,2.6,15.9,9.1
			c2.9,5.9,1,9-5.6,9.1c-6.2,0.1-12.4-0.2-18.6-0.1c-11.4,0.2-22.8,1.3-34.1,0.6c-10.4-0.7-20.8-2.9-31-5.2
			c-3.2-0.7-5.6-0.9-8.4,0.6c-6,3.3-12.4,5.1-19.3,4.2c-8.8-1-14.9-5.9-18.1-14c-2.9-7.3-0.7-12.7,6.2-16.3c1.3-0.7,2.7-1.3,3.5-1.7
			c-1.4-9.4-3.8-18.4-4-27.4c-0.4-24.2,9.3-44,28-59.5c18-15,38.4-18.7,60.8-14c6.5,1.4,13.1,2.5,19.7,3.6
			c7.7,1.3,11.3-1.5,12.1-9.3c0.2-2.3,0.4-4.6,0.5-5.7c-13.4-3-26.5-5.4-39.3-8.9c-8.7-2.4-17.1-6.1-22.4-14.3
			c-0.6-0.9-1.2-2.4-0.8-3c0.4-0.7,1.9-1.1,3-1.2c9.4-0.9,19-1.2,28.3-2.6c12.9-2,25.2-2.5,36.6,5.5c3,2.1,7,5,10.3-0.6
			c-4.1-6.4-8.4-12.8-12.3-19.4c-7.5-12.8-12.8-26.2-11.1-41.4c0.2-1.5,1.1-3,1.6-4.5c1.5,0.7,3.2,1,4.3,2
			c8,7.1,15.8,14.4,23.9,21.5c9.8,8.6,14.9,19.6,16.4,32.4c0.4,3.6,2.1,4.6,5.1,5.4c9.1,2.2,16.7,6.6,22.1,14.5
			c4.3,6.3,9.1,12.4,13.5,18.7c0.8,1.2,1.8,2.6,1.9,4c0.5,5.3-5.9,15.3-10.8,17.3c-10.5,4.4-11.6,6.7-10.2,18
			c1.9,14.3-3.5,26.4-12.4,36.9c-4.5,5.3-10.2,9.6-15.1,14.6c-1.2,1.2-2.4,3.2-2.5,4.9c-0.8,7.8-1.1,15.7-1.9,23.5
			c-0.3,3.2,0.3,5,3.7,5.8c4.1,0.9,7.5,3.1,8.8,7.4c1.3,4.3-0.6,7.5-5.1,7.8c-5,0.3-10.1,0.4-15.1-0.1c-5.8-0.5-9.1-4.7-11.1-9.8
			C196.3,245.7,194.1,239.2,191.8,232.8z"/>
		<path class="st3" d="M259.7,143c4.6-1.9,10.4-10.8,10.8-16.2c-4.7,3.2-14.1,8.7-27.5,11.4c0,0-10,2-13,19c0,0-10,42-51,62
			s-13,23-13,23h5.6c-1.5-0.2-3-0.3-4.4-0.5c8.2-3,16.3-5.9,24.6-8.9c2.3,6.4,4.5,12.9,7,19.2c2,5.1,5.3,9.2,11.1,9.8
			c5,0.5,10.1,0.4,15.1,0.1c4.5-0.3,6.4-3.4,5.1-7.8c-1.3-4.4-4.7-6.5-8.8-7.4c-3.4-0.8-4-2.6-3.7-5.8c0.8-7.8,1.1-15.7,1.9-23.5
			c0.2-1.7,1.3-3.6,2.5-4.9c5-5,10.7-9.3,15.1-14.6c8.9-10.6,14.3-22.7,12.4-36.9C248.1,149.7,249.2,147.4,259.7,143z"/>

			<ellipse transform="matrix(0.4213 -0.9069 0.9069 0.4213 38.3413 279.4533)" class="st3" cx="238.1" cy="109.7" rx="3.8" ry="6.4"/>
		<path class="st3" d="M118,248.2c-56.8-14.9-42.5-79.3-42.4-79.8c-5.1,10.2-7.6,21.6-7.4,34.2c0.2,9,2.6,18,4,27.4
			c-0.8,0.4-2.2,1-3.5,1.7c-6.9,3.7-9.2,9.1-6.2,16.3c3.3,8.1,9.3,12.9,18.1,14c6.9,0.8,13.3-0.9,19.3-4.2c2.8-1.5,5.2-1.3,8.4-0.6
			c10.2,2.3,20.6,4.5,31,5.2c11.3,0.7,22.8-0.4,34.1-0.6c6.2-0.1,12.4,0.2,18.6,0.1c2.3,0,4.1-0.5,5.2-1.2c1.4-1,0.6-0.2-1.2-0.1
			C160,262.2,118,248.2,118,248.2z"/>
		<path class="st3" d="M183.8,27.5c-0.2-0.1-0.3-0.1-0.5-0.2c-0.6,1.5-1.5,2.9-1.6,4.5c-1.7,15.2,3.6,28.7,11.1,41.4
			c3.9,6.6,8.2,13,12.3,19.4c-0.2,0.3,7.9-3.4,7.9-3.4c4-5-7-16-7-16C193.1,59.5,186.1,36.1,183.8,27.5z"/>
		<path class="st3" d="M150,108.6c12.6,3.5,25.5,5.9,38.6,8.8l0.3-0.3c0-7,5-11,5-11c-9-3-35-3-35-3c-19.2-0.7-28.6-8-32.2-11.8
			c-0.4,0.7,0.3,2.1,0.8,3C132.9,102.5,141.4,106.2,150,108.6z"/>
	</g>
</g>
<g>
</g>
<g>
</g>
<g>
</g>
<g>
</g>
<g>
</g>
<g>
</g>
<g>
</g>
<g>
</g>
<g>
</g>
<g>
</g>
<g>
</g>
<g>
</g>
<g>
</g>
<g>
</g>
<g>
</g>
</svg>
