<?xml version="1.0" encoding="utf-8"?>
<!-- Generator: Adobe Illustrator 22.0.1, SVG Export Plug-In . SVG Version: 6.00 Build 0)  -->
<svg version="1.1" id="Layer_1" xmlns="http://www.w3.org/2000/svg" xmlns:xlink="http://www.w3.org/1999/xlink" x="0px" y="0px"
	 viewBox="0 0 319.8 319.8" style="enable-background:new 0 0 319.8 319.8;" xml:space="preserve">
<style type="text/css">
	.st0{fill:#3F4D50;}
	.st1{fill:#283233;}
	.st2{fill:#FFD15F;}
	.st3{fill:#E2A852;}
</style>
<g>
	<path class="st0" d="M319.8,159.9c0,88.3-71.6,159.9-159.9,159.9S0,248.2,0,159.9S71.6,0,159.9,0S319.8,71.6,319.8,159.9"/>
	<path class="st1" d="M36.2,241.3l126.7,78.5c86.9-1.6,156.9-72.5,156.9-159.8c0-19.9-3.7-39-10.3-56.6l-67.3-40L36.2,241.3z"/>
	<path class="st2" d="M265.4,81.9c-6.4-8.1-13.5-15-22.9-19.2c-13.6-6-26.4-3.4-38.5,4.2c-13.9,8.7-24.1,21-32.8,34.6
		c-3,4.6-6.4,8-11.3,10.7c-16.1,8.8-29.6,21.1-42.7,33.9c-29.1,28.6-54.5,60.2-78.7,93c-0.6,0.9-1.4,1.7-2.2,2.5
		c3.7,3.2,13.7,7.7,37-2.3c6.7-3.7,12.5-8.6,18-14.1c13.9-14.1,28-28,42-42c0.8-0.8,1.7-1.6,2.5-2.3c-0.5,2-57.7,59.2-59.3,62.4
		c-2.4,4.9,7.6,5.9,11.9,4.7c57.2-16.6,77.9-38.2,100-59.3c0,0,0,0,0.1,0c-12.7,17.4-32.8,33.1-61.1,47.6c-0.4,0.2,1.6,1.2,2,1.1
		c7.4-0.5,14.8-1.3,22.1-2.3c1.9-0.3,3.2,0,4.8,1.3c4.3,3.7,8.8,7,13.2,10.5c0.6,0.5,1.2,1,2.2,1.9c0.3,0.2,0.2,0.7-0.1,0.8
		c-2.1,0.7-3.6,1.4-5.2,1.8c-5.1,1.4-10.3,2.6-15.5,4c-2.4,0.7-4.8,1.5-5.1,4.1c0,0.3,0.2,0.6,0.5,0.6c3.8,0,7.4,0.6,10.9,0.1
		c9.1-1.3,9.1-0.1,16.6-4.3c2.4-1.3,5-2.8,7.9-2.6v-0.1l16.5-1.1c2.6-0.5,4.8-0.9,7-1.4c0.8-0.2,1.6-0.4,2.2-0.9
		c1.1-1,2.2-2.1,3.2-3.1c0.2-0.2,0.2-0.6-0.1-0.8c-2.9-1.4-6.1-0.3-9.4-0.1c-3.8,0.3-8.7,0.8-11.4-1.1c-5.4-3.8-9.7-9.1-14.7-14.2
		c-0.2-0.2-0.2-0.6,0.1-0.8c1.2-0.5,2.1-1,3.1-1.4c17.6-7.5,34-16.8,47.4-30.7c15-15.5,23.8-33.5,23.4-55.7
		c-0.1-7.5,1.7-15.2,3.9-22.4c1.5-5,2.1-8.9,0.1-14c-4.2-10.7,0.2-18.7,11-22.3c0.4-0.1,0.8-0.3,1.2-0.6
		C265.5,82.5,265.6,82.2,265.4,81.9 M240.5,84.3c-2.6,0-4.7-1.6-4.7-3.5s2.1-3.5,4.7-3.5c2.6,0,4.7,1.6,4.7,3.5
		C245.2,82.7,243.1,84.3,240.5,84.3"/>
	<path class="st3" d="M283.4,103.9c-8.1,1.1-15.4,2.1-22.8,3c-0.9,0.1-2.3-0.5-2.9-1.2c-3.2-3.8-3.8-8.2-1.8-12.6
		c2-4.5,6-6.5,10.8-6.9c0.7-0.1,1.7,0.4,2.2,0.9C273.7,92.5,278.3,98,283.4,103.9"/>
	<path class="st3" d="M175.1,229.7c1.2-0.5,2.1-1,3.1-1.4c17.6-7.5,34-16.8,47.4-30.7c15-15.5,23.8-33.5,23.4-55.7
		c-0.1-7.5,1.7-15.2,3.9-22.4c0.4-1.4,0.8-2.7,1-3.9c-2.9-0.8-11.1-0.5-22.2,20.6c0,0-13.2,18.9-25.1,23.9h7.5
		c0,0-14,19.7-27.5,31.2c0,0-0.8,0.9-2.2,2.4c-12.7,15.4-31.6,29.4-57.1,42.5c-0.4,0.2,1.6,1.2,2,1.1c7.4-0.5,14.8-1.3,22.1-2.3
		c1.9-0.3,3.2,0,4.8,1.3c4.3,3.7,8.8,7,13.2,10.5c0.6,0.5,1.2,1,2.2,1.9c0.3,0.2,0.2,0.7-0.1,0.8c-2.1,0.7-3.6,1.4-5.2,1.8
		c-5.1,1.4-10.3,2.6-15.5,4c-2.4,0.7-4.8,1.5-5.1,4.1c0,0.3,0.2,0.6,0.5,0.6c3.8,0,7.4,0.6,10.9,0.1c9.1-1.3,9.1-0.1,16.6-4.3
		c2.4-1.3,5-2.8,7.9-2.6v-0.1l16.5-1.1c2.6-0.5,4.8-0.9,7-1.4c0.8-0.2,1.6-0.4,2.2-0.9c1.1-1,2.2-2.1,3.2-3.1
		c0.2-0.2,0.2-0.6-0.1-0.8c-2.9-1.4-6.1-0.3-9.4-0.1c-3.8,0.3-8.7,0.8-11.4-1.1c-5.4-3.8-9.7-9.1-14.7-14.2
		C174.7,230.3,174.8,229.9,175.1,229.7"/>
	<path class="st2" d="M283.4,103.9c-8.1,1.1-29.4-6.4-27.5-10.9c2-4.5,6-6.5,10.8-6.9c0.7-0.1,1.7,0.4,2.2,0.9
		C273.7,92.5,278.3,98,283.4,103.9"/>
	<path class="st3" d="M73.3,239.3c6.7-3.7,12.5-8.6,18-14.1c12.8-13.1,25.9-25.9,38.9-38.8c-59,49.8-89.2,54.4-93.5,54.8
		c-0.1,0.1-0.2,0.3-0.4,0.4C40,244.9,50,249.4,73.3,239.3"/>
	<path class="st3" d="M134.3,182.9c-1.1,1.2-2.6,2.9-4.5,4.9l6.4-6.5C135.5,181.8,134.9,182.3,134.3,182.9"/>
	<path class="st3" d="M185.5,191.5C124.8,233,81.7,242.2,76.7,243.2c0,0.1-0.1,0.1-0.1,0.1c-0.1,0.3-0.2,0.5-0.3,0.8l0.3,1.9
		c1.6,2.6,8.5,3,11.9,2.1C143.2,232.1,164.5,211.7,185.5,191.5L185.5,191.5"/>
</g>
</svg>
