<svg version="1.1" id="desert"
	xmlns="http://www.w3.org/2000/svg" xmlns:xlink="http://www.w3.org/1999/xlink"
	viewBox="0 0 200 200" xml:space="preserve">
<title>desert</title>
<g>
	<circle fill="#FFEDBF" cx="100" cy="100" r="100"/>
	<g>
		<defs>
			<circle id="SVGID_1_" cx="100" cy="100" r="100"/>
		</defs>
		<clipPath id="SVGID_2_">
			<use xlink:href="#SVGID_1_"  overflow="visible"/>
		</clipPath>
		<g clip-path="url(#SVGID_2_)">
			<path fill="#FFD15F" d="M200.001,100c0-3.602-0.195-7.158-0.566-10.661c-2.59-2.172-4.896-2.737-9.349-5.279
				c-7.783-4.443-16.907-10.212-25.547-12.709c-17.961-5.19-26.605-4.976-42.777,3.779c-8.085,4.376-22.343,11.032-31.617,10.662
				c-9.353-0.374-35.516-10.888-51.204-9.24C31.918,77.29,13.873,83.04,0.549,89.492C0.188,92.946,0,96.451,0,100
				c0,55.23,44.771,100.001,100,100.001S200.001,155.23,200.001,100z"/>
			<path fill="#FFAB23" d="M192.138,111.95c-18.43,0-24.514,7.215-36.342,7.215c-36.584,0-45.786-19.165-88.884-19.165
				c-26.157,0-41.929,14.859-69.265,15.975v22.583c1.422-0.675,2.824-1.285,4.177-1.773c9.366-3.384,14.861-7.479,23.29-7.479
				c1.945,0,4.048,0.219,6.39,0.714c9.01,1.907,20.909,7.107,30.261,7.481c0.14,0.006,0.28,0.009,0.424,0.009
				c4.694,0,11.551-2.944,18.799-5.888c7.249-2.943,14.889-5.887,21.153-5.887h0.064c12.986,0.044,39.339,15.238,65.34,15.238
				c10.821,0,21.588-2.635,31.295-10.09c0.586-0.45,1.107-0.658,1.576-0.658c0.349,0,0.667,0.121,0.962,0.338v-17.742
				C198.562,112.255,195.487,111.95,192.138,111.95z"/>
			<path fill="#FF8C0D" d="M200.416,130.226c-0.469,0-0.99,0.208-1.576,0.658c-9.707,7.455-20.474,10.09-31.295,10.09
				c-26.001,0-52.354-15.194-65.34-15.238h-0.064c-6.264,0-13.904,2.943-21.153,5.887c-7.249,2.943-14.105,5.888-18.799,5.888
				c-0.144,0-0.284-0.003-0.424-0.009c-9.353-0.374-21.251-5.574-30.261-7.481c-2.341-0.495-4.444-0.714-6.39-0.714
				c-8.26-0.001-13.712,3.931-22.741,7.272v42.834c8.009,8.479,18.888,16.32,31.073,22.762h107.413
				c1.804-0.608,3.603-1.242,5.387-1.938c11.029-4.302,14.835-15.488,25.368-20.772c6.815-3.41,13.662-12.557,19.864-22.221
				c-3.053-6.955-4.564-12.281,1.433-12.619c0.33-0.019,0.659-0.027,0.983-0.027c1.733-0.001,3.381,0.259,4.931,0.712
				c1.824-3.021,3.547-5.861,5.147-8.341C203.146,133.043,202.141,130.227,200.416,130.226z"/>
		</g>
		<g clip-path="url(#SVGID_2_)">
			<path fill="#E2A852" d="M107.225,71.694c2.623,0,5.563,5.127,5.563,9.816c0,4.588-0.036,10.214-0.036,15.232
				c0,6.77,2.154,9.304,7.587,9.381c1.329,0.02,2.74,0.037,4.128,0.052V61.376c0-5.977,3.561-10.821,7.954-10.821
				c0.235,0,0.471,0.011,0.703,0.035c0.231-0.024,0.467-0.035,0.702-0.035c4.393,0,7.954,4.845,7.954,10.821v30.101
				c4.633-0.002,9.394-0.184,9.394-9.801c0-3.906-0.614-8.112-0.614-11.609c0-4.508,2.86-10.453,7.529-10.453
				c7.462,0,7.811,8.384,7.811,15.781c0,17.796-2.445,21.157-9.922,21.572c-5.063,0.28-10.124,0.911-14.197,2.032v57.256h-17.313
				v-39.654c-4.628,0.155-9.921-1.177-12.734-1.177c-9.275,0-12.836-12.53-12.836-21.783
				C98.896,86.741,100.281,71.694,107.225,71.694z"/>
			<path fill="#C86F1A" d="M135.289,50.76c-9.461,0-6.274,14.773-6.274,51.47c0,3.47-2.967,4.102-5.499,4.102
				c-1.426,0-2.698-0.201-3.177-0.208l0,0c-5.433-0.077-7.587-2.611-7.587-9.381l0,0l0,0c0-5.018,0.036-10.644,0.036-15.232
				c0-4.689-2.94-9.816-5.563-9.816l0,0c-0.118,0-0.807,0.426-0.92,0.436c-1.861,0.896-0.965,15.79-0.829,23.963
				c0.143,8.594,3.615,17.356,11.579,17.356c0.122,0,0.246-0.002,0.37-0.006c0.513-0.004,1.234-0.023,2.077-0.023
				c3.962,0,10.595,0.434,10.755,4.957c0.378,10.72,0.026,25.828-0.391,37.879h11.914V99l0,0c4.073-1.121,9.135-1.752,14.197-2.032
				c7.477-0.415,9.922-3.775,9.922-21.572l0,0c0-6.71-0.306-14.207-5.924-15.548c-0.042-0.001-0.084-0.002-0.125-0.002
				c-2.855,0-3.486,4.08-3.515,8.083c-0.024,3.346,0.203,6.685,0.111,10.028c-0.145,5.281-0.552,13.858-10.834,13.858
				c-1.149,0-2.424-0.107-3.833-0.338l0,0V61.376c0-0.005,0-0.011,0-0.017c0-0.001,0-0.003,0-0.005c0-0.004,0-0.008,0-0.012
				c0-0.002,0-0.004,0-0.006c0-0.004,0-0.007,0-0.011c0-0.002,0-0.004,0-0.006c0-0.003,0-0.007,0-0.01c0-0.002,0-0.005,0-0.008
				c0-0.003,0-0.005,0-0.009c0-0.002,0-0.005,0-0.007c0-0.003,0-0.006,0-0.009s0-0.005,0-0.007c0-0.004,0-0.008,0-0.012
				c0-0.001,0-0.002-0.001-0.004c0-0.006,0-0.011,0-0.016c0-0.003,0-0.006,0-0.009c0-0.002,0-0.004,0-0.007c0-0.003,0-0.006,0-0.009
				c0-0.002,0-0.004,0-0.007s0-0.006,0-0.009c0-0.002,0-0.004,0-0.007s0-0.006,0-0.009c0-0.002,0-0.003,0-0.006
				c0-0.004,0-0.007-0.001-0.011c0-0.001,0-0.003,0-0.004c0-0.004,0-0.008,0-0.012c0-0.001,0-0.002,0-0.003
				c-0.08-5.156-2.813-9.422-6.416-10.383C135.338,50.76,135.313,50.76,135.289,50.76z"/>
		</g>
		<path clip-path="url(#SVGID_2_)" fill="#C86F1A" d="M106.395,151.574c-26.796,0-53.213,6.66-76.386,19.84
			c18.037,17.681,42.739,28.587,69.992,28.587c30.184,0,57.243-13.373,75.579-34.517
			C153.034,156.907,127.379,151.574,106.395,151.574z"/>
		<polygon clip-path="url(#SVGID_2_)" fill="#A85A11" points="124.467,152.724 147.921,187.791 162.431,178.117 141.78,155.589
			"/>
		<circle clip-path="url(#SVGID_2_)" fill="#FFFFFF" cx="69.853" cy="59.191" r="7.721"/>
	</g>
</g>
</svg>
