<svg id="hard" xmlns="http://www.w3.org/2000/svg" viewBox="0 0 421.14 210.57"><defs><style>.cls-1{fill:#0f3;}.cls-2{fill:#f30;}.cls-3{fill:#73fffd;}.cls-4{isolation:isolate;}</style></defs><g id="Layer_2" data-name="Layer 2"><g id="Layer_1-2" data-name="Layer 1-2"><path class="cls-1" d="M0,210.57H210.57L105.27,28.18A210.48,210.48,0,0,0,0,210.57Z" transform="translate(0 0)"/><path class="cls-2" d="M315.87,28.19,210.57,210.57H421.14A210.47,210.47,0,0,0,315.87,28.19Z" transform="translate(0 0)"/><path class="cls-3" d="M210.57,0a209.64,209.64,0,0,0-105.3,28.18l105.3,182.39L315.87,28.19A209.55,209.55,0,0,0,210.57,0Z" transform="translate(0 0)"/><g class="cls-4"><path d="M15.17,172.28H38.88v6.11H24v4.55H37.81v5.84H24v5.65H39.31v6.48H15.17Z" transform="translate(0 0)"/><path d="M50.79,186.89l-7.59-.8A8.43,8.43,0,0,1,44.44,183a6.89,6.89,0,0,1,2.33-2,9.81,9.81,0,0,1,3-.94,24.46,24.46,0,0,1,4.14-.33,32.56,32.56,0,0,1,5.74.4,7.41,7.41,0,0,1,3.62,1.67,6,6,0,0,1,1.6,2.49,9,9,0,0,1,.58,3.08v9.16a10.56,10.56,0,0,0,.19,2.29,10,10,0,0,0,.81,2.12H59a7.41,7.41,0,0,1-.59-1.22,9.16,9.16,0,0,1-.27-1.32A10.33,10.33,0,0,1,55,200.52a13,13,0,0,1-4.9.86,8.17,8.17,0,0,1-5.63-1.72,5.45,5.45,0,0,1-1.93-4.24A5.51,5.51,0,0,1,44,191.54q1.38-1.53,5.12-2.27,4.47-.9,5.8-1.26a27.42,27.42,0,0,0,2.81-.95,2.78,2.78,0,0,0-.61-2.05,3,3,0,0,0-2.12-.58,5.46,5.46,0,0,0-2.93.62A3.49,3.49,0,0,0,50.79,186.89Zm6.9,4.18c-1.09.39-2.23.73-3.42,1a7.77,7.77,0,0,0-3.06,1.27,2,2,0,0,0,0,3,2.73,2.73,0,0,0,1.92.59,5,5,0,0,0,2.47-.64,3.9,3.9,0,0,0,1.62-1.57,5.24,5.24,0,0,0,.48-2.41Z" transform="translate(0 0)"/><path d="M68.82,195.15l7.89-.74a4,4,0,0,0,1.37,2,4.1,4.1,0,0,0,2.34.6,3.91,3.91,0,0,0,2.48-.68,1.52,1.52,0,0,0,.69-1.27,1.44,1.44,0,0,0-.9-1.32,16.1,16.1,0,0,0-3.42-.82,35.26,35.26,0,0,1-5.75-1.34,6.1,6.1,0,0,1-2.72-2.08,5.4,5.4,0,0,1-1.1-3.33,5.46,5.46,0,0,1,1.19-3.53,7.15,7.15,0,0,1,3.28-2.22,17.45,17.45,0,0,1,5.61-.73,19.32,19.32,0,0,1,5.48.57A7.1,7.1,0,0,1,88.21,182a9.33,9.33,0,0,1,2,3.23l-7.54.74a2.55,2.55,0,0,0-1-1.47,4,4,0,0,0-2.26-.62,3.19,3.19,0,0,0-2,.48,1.43,1.43,0,0,0-.62,1.16,1.24,1.24,0,0,0,.78,1.15,12.79,12.79,0,0,0,3.4.7,23.07,23.07,0,0,1,5.9,1.25,6.5,6.5,0,0,1,3,2.28,5.64,5.64,0,0,1,1,3.26,6.41,6.41,0,0,1-1.08,3.49,7.32,7.32,0,0,1-3.42,2.7,16.41,16.41,0,0,1-6.36,1c-3.79,0-6.48-.54-8.09-1.62A7.31,7.31,0,0,1,68.82,195.15Z" transform="translate(0 0)"/><path d="M92.38,180.17h8.38L105,194l4-13.81h7.83l-8.23,22.16a13.36,13.36,0,0,1-2.87,5.12q-2.07,1.88-6.31,1.88a46.39,46.39,0,0,1-5.31-.47l-.62-5.55a12.37,12.37,0,0,0,3.82.55,3.74,3.74,0,0,0,2.28-.65,4.87,4.87,0,0,0,1.47-2.3Z" transform="translate(0 0)"/></g><g class="cls-4"><path d="M308.3,172.28h8.85v10h9.66v-10h8.89v28.63h-8.89V189.33h-9.66v11.58H308.3Z" transform="translate(0 0)"/><path d="M348.3,186.89l-7.6-.8a8.6,8.6,0,0,1,1.24-3.14,6.83,6.83,0,0,1,2.34-2,9.74,9.74,0,0,1,3-.94,24.46,24.46,0,0,1,4.14-.33,32.69,32.69,0,0,1,5.75.4,7.37,7.37,0,0,1,3.61,1.67,5.87,5.87,0,0,1,1.6,2.49,9,9,0,0,1,.59,3.08v9.16a11.35,11.35,0,0,0,.18,2.29,11.22,11.22,0,0,0,.81,2.12H356.5a7.18,7.18,0,0,1-.58-1.22,7.74,7.74,0,0,1-.28-1.32,10.3,10.3,0,0,1-3.1,2.15,13,13,0,0,1-4.91.86,8.17,8.17,0,0,1-5.63-1.72,5.47,5.47,0,0,1-1.92-4.24,5.55,5.55,0,0,1,1.38-3.88c.93-1,2.63-1.78,5.12-2.27,3-.6,4.92-1,5.8-1.26a26.63,26.63,0,0,0,2.81-.95,2.82,2.82,0,0,0-.6-2.05,3.07,3.07,0,0,0-2.13-.58,5.48,5.48,0,0,0-2.93.62A3.42,3.42,0,0,0,348.3,186.89Zm6.89,4.18c-1.09.39-2.23.73-3.41,1a7.84,7.84,0,0,0-3.07,1.27,2,2,0,0,0-.67,1.47,2,2,0,0,0,.66,1.53,2.74,2.74,0,0,0,1.92.59,4.92,4.92,0,0,0,2.47-.64,3.79,3.79,0,0,0,1.62-1.57,5.24,5.24,0,0,0,.48-2.41Z" transform="translate(0 0)"/><path d="M367.81,180.17h7.44v3.4a8.08,8.08,0,0,1,2.22-3,4.69,4.69,0,0,1,2.82-.83,8.38,8.38,0,0,1,3.85,1.09l-2.46,5.67a6.3,6.3,0,0,0-2.23-.59,2.74,2.74,0,0,0-2.42,1.29Q375.8,189,375.8,194v6.95h-8Z" transform="translate(0 0)"/><path d="M408.32,172.28v28.63h-7.44v-3.07a10.21,10.21,0,0,1-2.85,2.64,8.16,8.16,0,0,1-3.83.9,7.41,7.41,0,0,1-6.48-3.22,13.41,13.41,0,0,1-2.23-7.84q0-5.15,2.47-7.89a8.09,8.09,0,0,1,6.28-2.73,8.91,8.91,0,0,1,3.37.62,7.82,7.82,0,0,1,2.68,1.88v-9.92Zm-8,18.2a5.45,5.45,0,0,0-1-3.64,3.3,3.3,0,0,0-2.61-1.2,2.89,2.89,0,0,0-2.33,1.15,6.24,6.24,0,0,0-.93,3.87,5.88,5.88,0,0,0,1,3.72,3,3,0,0,0,2.39,1.18,3.2,3.2,0,0,0,2.54-1.19A6,6,0,0,0,400.35,190.48Z" transform="translate(0 0)"/></g><path d="M205.2,167.66v.07a20.54,20.54,0,0,0-2,.83,22,22,0,0,0,17.55,40.33,22.61,22.61,0,0,0,4.18-2.22l133.49-82.9a2.87,2.87,0,0,0-2.4-5.16Z" transform="translate(0 0)"/></g></g></svg>