<svg id="Layer_1" data-name="Layer 1" xmlns="http://www.w3.org/2000/svg" viewBox="0 0 649.7 1024">
  <defs>
    <style>
      .cls-1 {
        fill: #fff;
      }
    </style>
  </defs>
  <title>help</title>
  <path class="cls-1" d="M449.5,776.07q-.69-24.72-.69-37.09,0-72.78,20.61-125.68,15.09-39.82,48.76-80.35,24.72-29.52,88.94-86.19t83.44-90.32A145.52,145.52,0,0,0,709.8,283q0-72.12-56.32-126.72t-138.05-54.6q-79,0-131.86,49.45T314.2,305.62l-127-15.11q17.16-140.77,102-215.65T513.37,0Q661,0,748.94,80.35t87.91,194.36q0,65.94-30.9,121.57T685.07,531.57q-60.45,53.58-79,79t-27.47,58.38q-8.94,33-10.31,107.14ZM442,1024V883.21H582.74V1024Z" transform="translate(-187.15)"/>
</svg>
