<?xml version="1.0" encoding="utf-8"?>
<!-- Generator: Adobe Illustrator 22.0.1, SVG Export Plug-In . SVG Version: 6.00 Build 0)  -->
<svg version="1.1" id="Layer_1" xmlns="http://www.w3.org/2000/svg" xmlns:xlink="http://www.w3.org/1999/xlink" x="0px" y="0px"
	 viewBox="0 0 319.8 319.8" style="enable-background:new 0 0 319.8 319.8;" xml:space="preserve">
<style type="text/css">
	.st0{fill:#FFD15F;}
	.st1{fill:#E2A852;}
	.st2{fill:#81668E;}
	.st3{fill:#AE87BE;}
</style>
<g>
	<path class="st0" d="M319.8,159.9c0,88.3-71.6,159.9-159.9,159.9S0,248.2,0,159.9S71.6,0,159.9,0S319.8,71.6,319.8,159.9"/>
	<path class="st1" d="M178.7,318.7c79.4-9.3,141.1-76.8,141.1-158.8c0-20.7-3.9-40.4-11.1-58.5L277.9,83L75.6,256.3L178.7,318.7z"/>
	<path class="st2" d="M163.2,168l8.1-14c0,0,32.5-53.2,88.7-69.5c0,0,24.4-11.1,25.1,12.6c0,0,1.5,46.6-10.3,59.9
		c0,0-10.4,20.7-40.7,17c0,0,38.4,11.8,35.5,51.7c0,0-4.4,25.1-37,35.5c0,0-43.6,11.1-69.5-49.5C163.2,211.6,157.3,178.3,163.2,168"
		/>
	<path class="st3" d="M163,173.9l7.6-13.2c0,0,30.5-49.9,83.2-65.1c0,0,22.9-10.4,23.6,11.8c0,0,1.4,43.7-9.7,56.1
		c0,0-9.7,19.4-38.1,15.9c0,0,36,11.1,33.3,48.5c0,0-4.2,23.6-34.6,33.3c0,0-40.9,10.4-65.1-46.4C163,214.7,157.5,183.6,163,173.9"
		/>
	<path class="st2" d="M227.9,165c0,4.5,3.6,8.1,8.1,8.1s8.1-3.6,8.1-8.1s-3.6-8.1-8.1-8.1S227.9,160.5,227.9,165"/>
	<path class="st2" d="M249.3,158.4c0,2.9,2.3,5.2,5.2,5.2s5.2-2.3,5.2-5.2s-2.3-5.2-5.2-5.2S249.3,155.5,249.3,158.4"/>
	<path class="st2" d="M258.9,146.2c0,1.8,1.5,3.3,3.3,3.3s3.3-1.5,3.3-3.3s-1.5-3.3-3.3-3.3S258.9,144.3,258.9,146.2"/>
	<path class="st3" d="M156.6,168l-8.1-14c0,0-32.5-53.2-88.7-69.5c0,0-24.4-11.1-25.1,12.6c0,0-1.5,46.6,10.3,59.9
		c0,0,10.3,20.7,40.7,17c0,0-38.4,11.8-35.5,51.7c0,0,4.4,25.1,37,35.5c0,0,43.6,11.1,69.5-49.5C156.6,211.6,162.5,178.3,156.6,168"
		/>
	<path class="st2" d="M156.7,173.9l-7.6-13.2c0,0-30.5-49.9-83.2-65.1c0,0-22.9-10.4-23.6,11.8c0,0-1.4,43.7,9.7,56.1
		c0,0,9.7,19.4,38.1,15.9c0,0-36,11.1-33.3,48.5c0,0,4.2,23.6,34.6,33.3c0,0,40.9,10.4,65.1-46.4
		C156.7,214.7,162.3,183.6,156.7,173.9"/>
	<path class="st3" d="M91.9,165c0,4.5-3.6,8.1-8.1,8.1s-8.1-3.6-8.1-8.1s3.6-8.1,8.1-8.1C88.2,156.9,91.9,160.5,91.9,165"/>
	<path class="st3" d="M70.4,158.4c0,2.9-2.3,5.2-5.2,5.2c-2.9,0-5.2-2.3-5.2-5.2s2.3-5.2,5.2-5.2C68.1,153.2,70.4,155.5,70.4,158.4"
		/>
	<path class="st3" d="M60.8,146.2c0,1.8-1.5,3.3-3.3,3.3s-3.3-1.5-3.3-3.3s1.5-3.3,3.3-3.3C59.3,142.8,60.8,144.3,60.8,146.2"/>
	<path class="st2" d="M167.5,175.6c0,0,8.9-8.5,21.8-11.5c0,0-17.7,9.1-22.1,15l-0.7,3c0,0,19.1-9,38.1-5.6c0,0-27-0.3-38.1,10.1
		L165,191c0,0,8.1-3,18.9,0.5c0,0-17-0.7-19.5,2s-3.2-13.3-3.2-13.3L167.5,175.6z"/>
	<path class="st3" d="M152.4,175.6c0,0-8.9-8.5-21.8-11.5c0,0,17.7,9.1,22.1,15l0.7,3c0,0-19.1-9-38.1-5.6c0,0,27-0.3,38.1,10.1
		l1.5,4.4c0,0-8.1-3-18.9,0.5c0,0,17-0.7,19.5,2s3.2-13.3,3.2-13.3L152.4,175.6z"/>
	<path class="st2" d="M151,153.9c-0.7-3.7,1.5-5.2,1.5-5.2c2.2-1.5,3.7-3.7,3.7-3.7c1.5-2.2,3.7-2.2,3.7-2.2s2.2,0,3.7,2.2
		c0,0,1.5,2.2,3.7,3.7c0,0,2.2,1.5,1.5,5.2c0,0,0,3-2.2,5.2c0,0-0.7,1.5,0,4.4c0,0,3,23.7-3,33.3c0,0-1.5,4.4,0.7,10.4
		c0,0,3,10.3,0,31.8c0,0-0.7,3-4.4,3s-4.4-3-4.4-3c-3-21.4,0-31.8,0-31.8c2.2-5.9,0.7-10.4,0.7-10.4c-5.9-9.6-3-33.3-3-33.3
		c0.7-3,0-4.4,0-4.4C151,156.9,151,153.9,151,153.9"/>
	<path class="st2" d="M155.4,148c0,0-22.2-29.6-39.9-45.1c0,0-2.2-1.5-3,0.7c0,0,0,0.7,0.7,1.5c0,0,18.5,12.6,41.4,42.9H155.4z"/>
	<path class="st2" d="M164.3,148c0,0,22.2-29.6,39.9-45.1c0,0,2.2-1.5,3,0.7c0,0,0,0.7-0.7,1.5c0,0-18.5,12.6-41.4,42.9H164.3z"/>
</g>
</svg>
