<?xml version="1.0" encoding="utf-8"?>
<!-- Generator: Adobe Illustrator 22.0.1, SVG Export Plug-In . SVG Version: 6.00 Build 0)  -->
<svg version="1.1" id="Layer_1" xmlns="http://www.w3.org/2000/svg" xmlns:xlink="http://www.w3.org/1999/xlink" x="0px" y="0px"
	 viewBox="0 0 319.9 319.9" style="enable-background:new 0 0 319.9 319.9;" xml:space="preserve">
<style type="text/css">
	.st0{fill:#DC4844;}
	.st1{fill:#A53434;}
	.st2{fill:#F4ECDC;}
	.st3{fill:#CCB29B;}
	.st4{clip-path:url(#SVGID_2_);}
	.st5{opacity:0.5;}
	.st6{fill:#EDE2D1;}
	.st7{fill:#CCE2A1;}
	.st8{fill:#FFFFFF;}
	.st9{fill:none;}
	.st10{opacity:0.5;fill:#A53434;enable-background:new    ;}
</style>
<title>location</title>
<g>
	<g id="Layer_1_1_">
		<g>
			<path class="st0" d="M319.9,159.9c0,88.3-71.6,159.9-159.9,159.8c-88.3,0-159.9-71.6-159.8-159.9C0.2,71.6,71.7,0,160,0
				C248.3,0,319.9,71.6,319.9,159.9C319.9,159.9,319.9,159.9,319.9,159.9"/>
			<path class="st1" d="M319.9,159.9c0-13.9-1.8-27.7-5.3-41.2l-45.4-27L39.3,248.6l118.4,71.1h2.4
				C248.3,319.7,319.8,248.2,319.9,159.9"/>
			<g>
				<g>
					<polygon class="st2" points="97,228.8 39.5,248.2 39.5,91.3 97,71.9 					"/>
					<polygon class="st3" points="97,228.8 154.5,248.2 154.5,91.3 97,71.9 					"/>
					<polygon class="st3" points="211.9,228.8 269.4,248.2 269.4,91.3 211.9,71.9 					"/>
					<polygon class="st2" points="211.9,228.8 154.5,248.2 154.5,91.3 211.9,71.9 					"/>
				</g>
				<g>
					<defs>
						<polygon id="SVGID_1_" points="211.9,71.9 154.5,91.3 97,71.9 39.5,91.3 39.5,248.2 97,228.8 154.5,248.2 154.5,248.2
							154.5,248.2 154.5,248.2 154.5,248.2 211.9,228.8 269.4,248.2 269.4,91.3 						"/>
					</defs>
					<clipPath id="SVGID_2_">
						<use xlink:href="#SVGID_1_"  style="overflow:visible;"/>
					</clipPath>
					<g class="st4">
						<g class="st5">
							<g>
								<rect x="-32.7" y="17.1" class="st6" width="363.4" height="272.9"/>
								<polygon class="st7" points="98.4,289.9 96.1,249.6 172.2,224.9 169.8,289.9 								"/>
								<polygon class="st7" points="224.3,207.2 227.6,270.7 315.4,250.7 314.6,238.9 								"/>
								<polygon class="st7" points="91.3,157.5 93,196.2 123.5,216.2 144.3,191.3 127.8,166.9 117.3,149.1 								"/>
								<polygon class="st7" points="176.9,153.5 176.9,169.1 221.7,171.9 220.1,149.5 								"/>
								<polygon class="st7" points="264,37.8 267.3,78.3 330.7,95.8 330.7,53.4 								"/>
								<polygon class="st7" points="79.3,32.2 71.7,65 85,72 99.8,63.7 116.6,65.2 128,72 126.6,43.3 								"/>
								<polygon class="st7" points="-4,90.6 0.7,125.3 42.8,125.3 40.5,85.8 11.4,85.8 								"/>
								<polygon class="st7" points="6.4,182.8 29.8,211.8 -24.1,227 -32.7,195.3 								"/>
								<polygon class="st7" points="216.5,66 216.5,81.6 181.3,84.4 182.6,62 								"/>

									<rect x="40.2" y="-5.7" transform="matrix(0.998 -6.348726e-02 6.348726e-02 0.998 -9.1116 3.0617)" class="st8" width="6.9" height="301.3"/>

									<rect x="144" y="-146.6" transform="matrix(0.2419 -0.9703 0.9703 0.2419 64.5439 179.9766)" class="st8" width="6.9" height="390.5"/>
								<polygon class="st8" points="101,303.9 4.1,186 4,185 -19.5,-5 -12.7,-5.8 10.7,183.2 106.3,299.6 								"/>

									<rect x="-51" y="170.5" transform="matrix(0.9551 -0.2964 0.2964 0.9551 -49.9291 18.4977)" class="st8" width="174" height="6.9"/>

									<rect x="40.3" y="24.7" transform="matrix(0.1447 -0.9895 0.9895 0.1447 39.6946 102.1589)" class="st8" width="77.2" height="6.9"/>
								<polygon class="st8" points="118.4,145.2 112.4,147.9 70,65.8 76.2,62.9 								"/>

									<rect x="124" y="-12.7" transform="matrix(0.9986 -5.251025e-02 5.251025e-02 0.9986 -2.7633 6.7686)" class="st8" width="6.9" height="137.4"/>

									<rect x="21.8" y="141.6" transform="matrix(5.338165e-02 -0.9986 0.9986 5.338165e-02 22.8699 314.2362)" class="st8" width="310.7" height="6.9"/>
								<polygon class="st8" points="96.7,297.7 84,122.1 90.8,121.7 103.6,297.3 								"/>
								<rect x="-48.1" y="121" class="st8" width="354.7" height="6.9"/>

									<rect x="305.5" y="-5.6" transform="matrix(0.9982 -6.000326e-02 6.000326e-02 0.9982 -8.29 18.8024)" class="st8" width="6.8" height="306.2"/>

									<rect x="-54.2" y="229" transform="matrix(0.9533 -0.302 0.302 0.9533 -63.3723 54.9506)" class="st8" width="400.5" height="6.9"/>

									<rect x="216.7" y="-5.7" transform="matrix(0.9979 -6.418397e-02 6.418397e-02 0.9979 -8.9193 14.4273)" class="st8" width="6.8" height="303.5"/>

									<rect x="204.2" y="-113.6" transform="matrix(0.2416 -0.9704 0.9704 0.2416 135.2483 218.8396)" class="st8" width="6.8" height="273.1"/>
								<polygon class="st8" points="270,194 256.7,-9.8 263.5,-10.3 276.9,193.5 								"/>
								<polygon class="st8" points="-43.4,57.5 -46.2,54.2 -13.2,26.4 8.4,12.5 10.7,16.1 -10.6,29.9 								"/>
								<polygon class="st8" points="-6.6,91.9 -7.2,89 22,83.8 39.7,83 39.9,86 22.4,86.8 								"/>

									<rect x="72.7" y="12.5" transform="matrix(0.3727 -0.928 0.928 0.3727 44.562 95.2187)" class="st8" width="39.9" height="4.3"/>

									<rect x="87.4" y="16.7" transform="matrix(0.1042 -0.9946 0.9946 0.1042 77.4454 123.6351)" class="st8" width="39.9" height="4.3"/>

									<rect x="130.3" y="103.2" transform="matrix(0.9887 -0.1498 0.1498 0.9887 -14.0378 24.4514)" class="st8" width="50" height="4.3"/>

									<rect x="176.7" y="148.6" transform="matrix(0.9974 -7.184561e-02 7.184561e-02 0.9974 -10.3162 14.6456)" class="st8" width="43.4" height="4.3"/>

									<rect x="195.6" y="145.6" transform="matrix(5.989229e-02 -0.9982 0.9982 5.989229e-02 17.5962 355.9844)" class="st8" width="4.3" height="46"/>
								<polygon class="st8" points="181.4,86.6 217.4,83.8 217.2,79.4 181.2,82.3 								"/>
								<polygon class="st8" points="239.5,203 237.6,175 234.9,125.6 239.2,125.2 241.9,174.6 243.9,202.6 								"/>
								<path class="st8" d="M221.7,162.5l-1.4-4.1c18.8-6.4,47.5-16.3,49.4-17.2c-0.8,0.5-1.2,1.5-1,2.4l2.1-0.5l-0.1-2.2l2.2,1.8
									c0.3,1.8-1.3,2.4-1.9,2.6c-0.4,0.2-0.9,0.4-1.6,0.6c-1.3,0.5-3.2,1.2-5.7,2c-4.1,1.5-9.9,3.5-17.1,6
									C234.3,158.2,221.8,162.4,221.7,162.5z"/>
								<path class="st8" d="M299.9,30.7c0,0-2.7-4.6-16.1-8.8c-14-4.3-21.3-2.6-21.3-2.6l-1-4.2c0.3-0.1,8.4-2,23.7,2.7
									s18.4,10.4,18.7,11L299.9,30.7L299.9,30.7z"/>
								<polygon class="st8" points="267.6,126.5 247.9,94.4 216.4,81.1 217.9,77 250.9,90.9 271.3,124.2 								"/>

									<rect x="267.9" y="103.2" transform="matrix(3.716690e-02 -0.9993 0.9993 3.716690e-02 173.0533 390.3084)" class="st8" width="42.4" height="4.3"/>

									<rect x="301.2" y="33" transform="matrix(0.8278 -0.5611 0.5611 0.8278 35.8133 187.0019)" class="st8" width="42.6" height="4.3"/>

									<rect x="313.3" y="-18.2" transform="matrix(0.6508 -0.7593 0.7593 0.6508 103.566 242.519)" class="st8" width="4.3" height="53.7"/>
								<polygon class="st8" points="155.9,103.5 146.5,50.3 152.7,47.5 149.7,-8.6 154,-8.9 157.1,48.4 151,50.8 160.1,102.5
																	"/>

									<rect x="16" y="124.1" transform="matrix(0.9844 -0.1759 0.1759 0.9844 -26.3271 5.5538)" class="st8" width="4.3" height="54.3"/>

									<rect x="64.2" y="115.7" transform="matrix(1.256606e-02 -0.9999 0.9999 1.256606e-02 -73.2942 203.4187)" class="st8" width="4.3" height="46.3"/>

									<rect x="57.6" y="138.8" transform="matrix(0.2496 -0.9684 0.9684 0.2496 -105.3544 174.2482)" class="st8" width="4.3" height="32.5"/>
								<path class="st8" d="M1,115.8C1,115.8,1,115.8,1,115.8l-4.3-0.6c0.1-0.9,1.5-8.5,18.1-14.3c17-5.9,27.6,5.3,28,5.7l-3.2,2.9
									c-0.4-0.4-9.2-9.6-23.4-4.6C2.2,109.9,1,115.7,1,115.8z"/>
								<path class="st8" d="M79.9,77.8C79.9,77.7,79.9,77.7,79.9,77.8l-5.3-0.6c0.1-0.8,1.8-8.5,22.2-14.3
									c20.8-5.9,33.8,5.3,34.4,5.7l-3.9,2.9c-0.5-0.4-11.2-9.6-28.7-4.6C81.4,71.9,79.9,77.7,79.9,77.8z"/>

									<rect x="-47.5" y="155.4" transform="matrix(3.472503e-02 -0.9994 0.9994 3.472503e-02 -171.8315 137.156)" class="st8" width="65.2" height="4.3"/>

									<rect x="-32.3" y="124.6" transform="matrix(0.9875 -0.1576 0.1576 0.9875 -25.2991 -2.7721)" class="st8" width="4.3" height="67.1"/>
								<polygon class="st8" points="3.6,278 -26.8,227.4 -36.4,196.4 -32.3,195.1 -22.8,225.6 7.3,275.8 								"/>

									<rect x="-43.1" y="220" transform="matrix(0.961 -0.2765 0.2765 0.961 -61.6557 7.0146)" class="st8" width="74.3" height="4.3"/>
								<path class="st8" d="M8.8,278L5,275.8c0.1-0.1,7.8-13.5,15.5-26.7c16-27.3,16.5-27.6,17.3-28l2,3.8c0.2-0.1,0.4-0.2,0.5-0.4
									C38.7,226.6,20.5,257.6,8.8,278z"/>
								<polygon class="st8" points="88.2,250.7 65.4,167 71,165.8 93.8,249.4 								"/>
								<polygon class="st8" points="47.4,201.9 46.9,197.6 78.5,195.9 79,200.2 								"/>

									<rect x="118.2" y="181.4" transform="matrix(0.5603 -0.8283 0.8283 0.5603 -124.3952 193.8285)" class="st8" width="4.3" height="65.4"/>
								<polygon class="st8" points="167.6,227.3 112.9,148.2 118.2,144.9 173,224 								"/>
								<polygon class="st8" points="100.6,246.2 96.3,242.4 142.4,189.8 146.7,193.6 								"/>

									<rect x="184.8" y="220.2" transform="matrix(0.998 -6.313889e-02 6.313889e-02 0.998 -16.0579 12.3265)" class="st8" width="4.3" height="80.1"/>
								<path class="st8" d="M171.2,278.8L169,275c0,0,14-8.2,28.1-16.3c8.2-4.7,14.7-8.5,19.3-11.2c2.6-1.5,4.8-2.8,6.4-3.7l1.8-1
									c0.9-0.5,1.7-0.9,2.7-0.4l1.1,1.8l-4.3,0.3l2.2-0.1l-1.1,1.9c0.6,0.4,1.4,0.4,2,0.1C225.7,247.1,192.9,266.2,171.2,278.8z"
									/>
								<polygon class="st8" points="313.2,242.5 222.3,212.6 224.3,207.2 315.3,237.1 								"/>

									<rect x="227.1" y="258.9" transform="matrix(0.9778 -0.2096 0.2096 0.9778 -48.6865 62.6676)" class="st8" width="88.4" height="4.3"/>
								<rect x="-32.7" y="17.1" class="st9" width="363.4" height="272.9"/>
							</g>
						</g>
					</g>
				</g>
				<g>
					<path class="st1" d="M177.1,130.6c-3.8,0-7-3.1-7-6.9c0-3.8,3.1-7,6.9-7c0,0,0,0,0,0h0.4v-9.3h-1.1
						c-9.6,0.5-17.9,10.6-14.9,20.1c1.6,4.4,3.9,8.6,6.7,12.4c1,1.4,1.9,2.7,3,4c0.9,1.2,1.8,2.3,2.7,3.5c1.2,1.5,2.4,3,3.5,4.5h0.2
						v-21.2L177.1,130.6"/>
					<path class="st0" d="M178.7,107.4h-1.1v9.3c3.8,0.3,6.7,3.6,6.5,7.4c-0.2,3.5-3,6.2-6.5,6.5v21.2h0.3c1.1-1.5,2.3-3,3.5-4.5
						c0.9-1.1,1.8-2.3,2.7-3.5c0.9-1.2,2-2.6,2.9-4c2.9-4,5.2-8.3,6.8-13C196.2,117.5,188.1,107.9,178.7,107.4"/>
					<path class="st10" d="M188.5,155.9c0,1.5-4.9,2.8-10.9,2.8s-10.9-1.2-10.9-2.8s4.9-2.8,10.9-2.8S188.5,154.4,188.5,155.9z"/>
				</g>
			</g>
		</g>
		<circle class="st9" cx="159.9" cy="159.9" r="159.9"/>
	</g>
</g>
</svg>
