<svg version="1.1" id="map" xmlns:svg="http://www.w3.org/2000/svg"
xmlns="http://www.w3.org/2000/svg" xmlns:xlink="http://www.w3.org/1999/xlink" x="0px" y="0px" viewBox="0 0 680 389.5"
xml:space="preserve">
<g id="Canada" transform="translate(-959.79,0.708441)">
<g id="bc">
    <title>British Columbia</title>
		<path d="M1089.4,371.9c-7-2.9-18.8-13.4-19.5-17.6c-0.4-2.4-1.2-3-3.6-3.5c-3.2-0.5-6-4-8.5-9.8
			c-0.6-1.6-2.4-4.2-4-5.9s-4-4.9-5.4-7.1s-4.9-6.7-7.8-10.1c-3.1-3.6-6.2-8.2-7.6-11.8c-1.3-3.2-3.3-7.2-4.3-8.9
			c-1.8-2.8-1.8-3.1,0.5-5.9c1.3-1.6,3.3-3.2,4.4-3.4c2-0.4,8.8,4.2,20.4,13.4c3.6,2.9,7.2,5.7,7.8,6.2c0.7,0.5,3.1,2.6,5.4,4.7
			c2.3,2.1,4.5,3.9,4.8,4.2c1.6,0.9,5.7,9.1,7.4,14.8c1.6,5.4,2.6,6.8,7.9,11.7c7.1,6.4,7.8,7.4,10.1,15c1,3.1,2.7,7.2,3.8,9.2
			c1.1,1.9,1.8,3.8,1.5,4.2C1101.6,372.9,1093.1,373.3,1089.4,371.9z"/>
		<path d="M1252.1,380c-0.9-0.1-22.4-2.7-39-4.7c-5.7-0.7-67.1-11.5-92.5-16.4c-4.3-0.8-9.3-1.7-11.1-2
			c-4-0.7-4.9-1.5-5.7-6.1c-0.5-2.6-1.5-4.1-3.1-5c-6.6-3.7-9.1-5.6-9.4-7.5c-0.2-1.2-0.8-2-1.3-1.9c-2.4,0.4-6.8-4.1-8.2-8.5
			c-2.4-7.2-6.8-13-13.7-17.8c-6.2-4.3-6.2-4.4-6.6-9.2c-0.2-3.9-0.6-4.8-1.8-4.6c-0.8,0.1-1.7-0.1-2-0.4c-0.3-0.4-2.8-1.5-5.7-2.5
			c-2.8-1-5.3-2.4-5.4-3.1c-0.1-0.7-0.7-2-1.1-3.1c-1.1-2.5-1.4-4.3-3.3-14.9c-1.5-8.9-1.5-9.2,1-12.2c2.3-2.9,2.4-3.3,0.8-6
			c-0.9-1.6-2-4.6-2.4-6.8c-0.5-2.9-2-5-5.7-8.8c-4.2-4.1-5-5.5-5.1-8.4c-0.1-1.9,0.7-4.4,1.6-5.5c1.9-2.3,1.4-3.8-3.3-9.9
			c-2.3-3-3-5.4-5.1-16.3c-2.3-12.3-2.3-12.8-0.3-15.7c1.1-1.6,4.2-4.2,6.9-5.9c6.6-4,11.3-10,10.6-13.8c-0.7-3.9,0.6-9,3.5-13.7
			c2.2-3.6,2.3-4.6,1.3-10c-1-5.5-1.5-6.2-4.6-8.1c-3.9-2.4-11.9-12.4-14.7-18.5c-1.7-3.7-1.9-5.8-1.3-15.7
			c0.6-10.2,0.4-12.2-1.5-16.9c-1.2-2.9-3.1-9.5-4.4-14.6c-1.2-5.1-2.7-10.1-3.1-11.2c-0.4-1.1-1.4-3.7-2.1-5.7s-3.6-9-6.4-15.5
			c-2.8-6.5-5.6-12.7-6.1-13.8c-0.6-1.3-2.4-2.4-4.8-3c-7.4-1.6-8.3-1.4-9.7,2.2c-0.9,2.4-2.7,4.2-6.8,6.6c-3,1.8-7.1,4.4-9.1,5.9
			c-2,1.4-3.6,2.6-3.8,2.6c-0.1,0-0.1-1.5,0-3.3c0.5-5.2-2.6-16.8-5.1-19.4c-2.6-2.7-4-11.9-1.8-11.9c0.7,0.1,11.8,4.4,24.7,9.8
			c34.9,14.6,72.8,29,90.9,34.6c8.8,2.7,16.6,5.2,17.3,5.4c3,1.4,36.2,11.1,48.4,14.2c7.7,1.9,24.1,5.4,36.5,7.7
			c12.4,2.4,23.1,4.5,23.6,4.8c0.5,0.3,0.6,1.7,0.4,3.1c-0.4,1.4-2.8,16.5-5.6,33.5c-2.7,17-5.8,35.9-6.9,42
			c-11.2,66.2-13.4,81.1-12.5,86c0.5,2.9,0.5,6.1-0.1,7.5c-1.6,3.4,0.5,7.4,4.5,9.1c5.2,2.1,13.1,12,15.1,18.8
			c1.1,3.7,2.8,6.8,5.2,9.4c2,2.2,3.6,4.3,3.8,4.9c0.1,0.5,1.5,1.9,3,3.1c1.5,1.1,3.7,4.1,4.9,6.5s2.6,4.6,3.1,4.8
			c1.4,0.5,7,8.3,8.6,11.5c0.7,1.6,5.6,8.6,10.8,15.7c5.5,7.4,9.8,14.1,10.2,15.9c0.3,1.7,0.5,7.3,0.6,12.6c0,9.9,1,13.8,4.4,17.4
			C1253.9,379.4,1253.9,380.2,1252.1,380z"/>
		<path d="M992.2,236.4c-5.7-8.5-9.3-19.2-11.5-35.1c-1.3-9.2-1.7-14.8-1-16c0.5-0.9,0.9-2.5,0.7-3.3
			c-0.5-2.6,3.8-3.2,8.2-1.3c5.3,2.3,12.8,7.4,13,8.9c0.1,0.7-3,6.1-6.9,12.1c-8.3,12.7-8.4,13.3-1.5,27.2c2.3,4.6,4.2,9.2,4.4,10.1
			C998.2,242.4,995.3,241,992.2,236.4z"/>
</g>
<g id="ab">
    <title>Alberta</title>
	<path class="st0" d="M1307.9,384.5c-55.2-4.1-49.2-3.1-53.5-9.5l-3.8-5.4l0.1-11.3c0.1-11.9-0.5-14.8-4.7-20.2
		c-1.4-1.9-5.4-7-8.7-11.5c-3.4-4.5-7.7-10.8-9.4-14c-1.8-3.2-4.9-7.5-6.9-9.6c-2-2.1-4.2-5.3-5-7.2s-2.8-4.7-4.7-6.1
		s-3.5-3.2-3.6-3.7c-0.1-0.5-1.3-2.2-2.8-3.5c-1.5-1.5-3.5-5.2-4.7-8.9c-1.4-4-3.2-7.5-5.2-9.4c-1.6-1.6-3.7-4.1-4.5-5.5
		c-0.9-1.4-3.2-3.2-5.3-4.1c-3.9-1.6-5.8-4.9-3.9-6.7c0.5-0.4,0.4-3.2-0.1-6.3c-1-5.3,2.1-25.1,23.5-153.8l1.9-11.6l23.1,3.2
		c12.7,1.8,32,4.1,42.8,5.2c10.8,1,30,3.1,42.4,4.3c12.5,1.2,22.8,2.4,23.1,2.5c0.8,0.6-0.2,15.6-1,16.5c-0.5,0.5-2,1.4-3.2,2
		c-2.3,1.1-10.8,13.2-10.5,15.1c0.1,0.6,1.9,1.5,4,2.1c3.6,1,3.9,0.9,6.2-1.5c1.4-1.4,2.6-3.5,2.7-4.7c0.2-1.2,0.6-1.9,0.8-1.8
		c0.3,0.2,0.1,7.9-0.4,17.2c-1.1,21.9-2.3,45.5-4,77.9c-0.7,14.4-1.6,30.8-1.9,36.5c-1.5,28.5-2.8,53.9-3.5,67.8
		c-3.7,73.1-3.3,67.3-4.3,67.3C1322.7,385.6,1315.9,385.1,1307.9,384.5z"/>
   </g>
<g id="sk">
    <title>Saskatchewan</title>
	<path d="M1471.2,385.3c-0.2-0.2-4.1,0-8.5,0.5c-4.4,0.4-9.1,0.9-10.5,0.9c-1.4,0.1-5.4,0.3-9,0.7
		c-3.6,0.4-7.6,0.6-9,0.7c-1.4,0.1-5.4,0.3-9,0.7c-3.6,0.4-17.8,0.1-31.6-0.4c-13.8-0.6-25.8-0.9-26.6-1c-4.6-0.2-7.3-0.3-13.3-0.5
		c-3.7-0.1-7.6-0.3-8.7-0.3c-1.1,0-5.6-0.2-10-0.3c-6.4-0.2-8-0.7-7.8-2c0.2-1.6,2-34.7,2.1-38.1c0.1-0.8,0.3-7.5,0.8-14.9
		c0.4-7.4,1-20.3,1.5-28.8c0.5-8.4,1.3-24.9,1.9-36.5c0.6-11.6,1.2-22,1.2-23.1c0-1.1,0.4-7.8,0.7-14.9c0.4-7.1,1.2-21.7,1.7-32.4
		c0.5-10.8,1.4-26,1.7-33.9c0.4-7.9,1.1-21.4,1.5-30l0.9-15.6l5.2-0.6c2.8-0.3,7.4-0.6,10.1-0.7c2.7-0.1,8.3-1.2,12.4-2.5
		c7-2.2,7.8-2.3,13.9-0.8c6.1,1.4,8.5,1.2,8.1-0.9c-0.2-1.1-22.9-7.4-28.4-7.8c-2.3-0.2-5.1-0.2-6.3,0.1c-1.2,0.2-3.3-0.3-4.5-1.2
		c-2.6-1.8-5.5-1.6-8.1,0.5c-2,1.6-2.1,1.3-1.9-5.8c0.2-4.1,0.5-5.2,1.9-5c1.5,0.1,8.7,0.3,15.5,0.3c1.3,0.1,3.4,0,4.5,0.1
		c3.4,0.1,45.7,0.5,48.4,0.4c1.4-0.1,8,0,14.8,0.1c6.7,0.1,14,0,16.2-0.2c3.9-0.3,4-0.2,4.4,3c0.2,1.9,0.9,11.8,1.3,22
		s0.9,21,1.1,23.7c0.3,4.9-0.4,7.7-2.1,8c-1.5,0.3-6.2,7.9-6.9,11.2c-0.5,2.4-0.3,4.1,1,6.3c3.5,6.6,3.7,10,1,14.1
		c-1.7,2.7-2.2,4.2-1.4,5c0.9,1,1.6,0.6,3.7-2c1.4-1.8,3.2-3.3,4-3.5c1.5-0.3,2.1,2.9,4.1,22.6c0.4,3,1,9.5,1.7,14.4
		c0.6,5,1.2,11,1.5,13.5c0.3,2.5,1,9,1.7,14.4c0.7,5.5,1.3,11.6,1.5,13.5c0.2,1.9,0.9,8.5,1.7,14.4c0.8,6,1.4,12,1.5,13.5
		c0.1,1.4,0.8,7.9,1.7,14.4c0.8,6.6,1.5,12.6,1.5,13.5c-0.1,0.8,0.7,7.1,1.6,13.9c0.9,6.9,1.6,13.1,1.6,13.9
		c-0.1,0.8,0.7,7.1,1.6,13.9c0.9,6.9,1.5,13.2,1.5,14.3c0,1,0.5,4.7,1,8.2C1473.9,384.5,1473.3,386.6,1471.2,385.3z"/>
</g>
<g id="mb">
    <title>Manitoba</title>
	<path d="M1450.5,91.3l0.5,6.3c0.2,3.5,0.4,7,0.4,7.9s0.1,4,0.3,7.1c0.2,3,0.2,6.3,0.3,7.1
		c0,0.8,0.4,7.4,0.7,14.5c0.7,12.3,0.8,13.2,2.9,15.5c2.2,2.4,2.1,2.6,0.1,6.5c-1.2,2.3-2.5,4.8-3,5.8c-0.4,1-0.1,7.6,0.9,14.7
		c1,7,1.9,14.7,2.1,16.9c0.2,2.2,0.9,8,1.4,13c0.5,5,1.4,11.6,1.7,14.9c1.5,13.7,2.1,19.3,3,26.9c0.5,4.4,1.1,10.2,1.4,13
		c0.3,2.8,1,9.5,1.8,14.9c0.7,5.5,1.4,11.7,1.6,13.9s1,8.7,1.7,14.4c0.7,5.8,1.4,12,1.6,13.9c0.2,1.9,1,8.7,1.8,14.9
		c0.8,6.3,1.4,12.1,1.4,13c0,2.7,2.8,25.3,4,31.8l1.1,6.4l6-0.5c9.6-0.8,18.8-1.5,21.6-1.6c1.4-0.1,5-0.3,8-0.5
		c5.8-0.5,9.1-0.7,18.1-1.2c3-0.2,9.8-0.8,15-1.5c5.2-0.7,14-1.8,19.5-2.7l10-1.5l-0.3-4.8c-0.2-2.6-1.1-10.2-2-16.7
		c-0.9-6.5-2.1-15.1-2.5-18.9c-0.5-3.8-1.8-13.7-3-21.8c-4.1-28.3-4.4-31.2-2.7-35.6c0.8-2.2,6.3-11.5,12.2-20.7
		c5.9-9.1,12.3-19.2,14.2-22.3c1.9-3.1,3.8-6.3,4.2-7c7.5-12.4,11.1-18.5,15-25.6c2.6-4.7,7.3-12.4,10.2-17.3c3-4.8,6.6-10.8,8-13.2
		c1.5-2.4,4.5-7.2,6.6-10.8c2.2-3.6,3.9-6.8,3.8-7.4c-0.2-1.1-5.7-2.3-10.4-2.1c-7,0.2-9-0.2-10.5-1.5c-1.2-1.2-2.9-1.2-7.5-0.2
		c-3.2,0.7-6.2,1.8-6.5,2.4c-0.6,1.3-11.7,4.9-14,4.4c-1.1-0.2-1.4-1-1.2-2.5c0.4-2.2,0-3.4-5.2-16.1c-3.7-9.1-4.8-11.8-6.4-17.1
		c-1.9-6-4.8-7.4-15.5-7.7c-6.8-0.2-9.3-0.6-10.3-2c-1.6-2-3-9.8-3.7-20.6l-0.5-6.8l-5.2,0.9c-2.9,0.4-5.6,0.8-6.1,0.8
		c-0.4,0-4.1,0.3-8.2,0.5c-4.1,0.3-8.2,0.6-9,0.6c-0.8,0-4.6,0.3-8.4,0.6c-3.8,0.3-7.9,0.6-9,0.6c-1.1,0-4.8,0.3-8.1,0.6
		c-3.3,0.3-9.6,0.8-14,1.1s-10.7,0.8-14,1.1c-3.3,0.3-8.1,0.7-10.7,0.8L1450.5,91.3z M1510,255.1c3.8-0.7,6.6,0.6,9.3,4.1
		c1.6,2,3.1,3.8,3.6,4c2.1,0.9,8.8,12.1,8.2,13.5c-0.3,1,2.4,6.1,5,9.1c0.9,1.1,1.9,4.3,2.4,7.2c0.8,5.5,6.3,16.9,10.3,21.7
		c1.7,1.9,2.8,5.3,4.3,11.9c2,9.2,1.9,9.3-0.3,10c-1.2,0.4-2.9,2-3.7,3.5c-1.7,3.2-3.4,3.7-5.8,2.1c-2-1.4-2.8-8.5-1.3-12
		c0.5-1.2,1-3.5,0.9-5.1c0-1.6,0.4-3.6,1-4.6c1.5-2.7,1-5.1-1.3-6c-1.8-0.7-2.2-0.5-3,1.4c-1,2.4-3.2,3.3-3.6,1.5
		c-0.1-0.6,0-2.6,0.4-4.4c1.3-7.8-4.2-13.4-10-10c-2.4,1.4-3.1,1.3-5.1-0.2c-1.3-1-3.3-3.8-4.7-6.1c-1.4-2.4-3.8-5.6-5.4-7.1
		c-2.1-2-3-3.7-3.1-5.8c-0.1-2.7-0.6-3.1-5.3-4.7c-7-2.2-9.4-0.7-8.5,5.1c0.3,2.3,0.9,6.2,1.2,9c1.6,13.6,1.6,13.7,6.3,16.1
		c9.9,5.3,10.8,6,13.3,11.8c1.4,3.1,2.8,7.2,3,9.2c0.4,2,2.3,5.6,4.1,8.1c4.5,5.9,5.6,10.9,2.6,12.3c-3.1,1.5-4.4,1.6-5.3,0.5
		c-0.9-1-5.9-12.9-9.8-23.4c-2.2-5.9-4-7.5-11.6-10.7c-6.1-2.5-9.2-4.8-9.3-6.7c0-0.7-0.2-2.1-0.3-3.2c-0.1-1.1,0.2-2.6,0.9-3.5
		c0.7-1,0.6-3.9-0.2-8.1c-1.2-6.5-1.2-6.5-5.3-8c-4.7-1.6-6.6-3.6-7.3-7.3c-0.4-2.1,0-2.6,2-3c3.6-0.7,4.3-4.1,1.3-6.7
		c-1.3-1.2-2.5-2.6-2.6-3.2c-0.2-1.3,4-4.2,6.7-4.5c2.4-0.3,8.4,3.5,8.8,5.7c0.2,0.9,1.5,2.4,3,3.3l2.7,1.7l0.6-3.8
		c1-6.5,4.1-12.3,7.2-13.7C1507.4,255.8,1508.7,255.3,1510,255.1z"/>
</g>
</g>
</svg>
