<svg version="1.1" id="ocean"
	xmlns="http://www.w3.org/2000/svg" xmlns:xlink="http://www.w3.org/1999/xlink"
	viewBox="0 0 200 200" xml:space="preserve">
<title>ocean</title>
<g>
	<circle id="XMLID_2_" fill="#C6F5FF" cx="100" cy="100.001" r="100"/>
	<g>
		<defs>
			<circle id="XMLID_1_" cx="100" cy="100.001" r="100"/>
		</defs>
		<clipPath id="XMLID_4_">
			<use xlink:href="#XMLID_1_"  overflow="visible"/>
		</clipPath>
		<path clip-path="url(#XMLID_4_)" fill="#007F9C" d="M199.982,98.57c-7.904-2.327-13.914-6.683-23.99-6.683
			c-13.737,0-13.816,8.456-27.554,8.456s-20.75-10.661-34.487-10.661c-17.491,0-28.124,12.016-36.557,6.254
			c-11.175-7.427-10.979-22.413-7.98-31.281c1.181-3.491,3.625-6.701,6.699-9.176c-30.227-7.426-43.616,8.425-54.045,22.675
			c-5.394,7.371-13.58,14.03-21.944,16.898c-0.001,0.023-0.001,0.047-0.002,0.07c-0.039,0.795-0.069,1.591-0.088,2.391
			C0.011,98.341,0,99.169,0,100.001C0,155.229,44.772,200,100,200c55.228,0,100-44.771,100-99.999
			C200,99.522,199.989,99.047,199.982,98.57z"/>
		<path clip-path="url(#XMLID_4_)" fill="#1091AE" d="M199.068,108.4c-13.737,0-13.737-6.617-27.477-6.617
			c-13.737,0-13.737,6.617-27.475,6.617c-10.806,0-17.596-5.752-24.373-9.066c-14.257-6.97-29.3,10.056-45.389-6.035
			c-10.392-10.392-8.577-29.496,1.757-37.819c-8.854-2.175-10.994,3.229-17.308,4.423c-1.987,1.695,6.664-5.818-4.825-0.138
			c-29.2,14.437-31.504,36.848-53.972,40.783C0.302,155.523,44.955,200,100,200c52.4,0,95.383-40.308,99.646-91.607
			C199.455,108.396,199.266,108.4,199.068,108.4z"/>
		<path clip-path="url(#XMLID_4_)" fill="#1FA2BF" d="M76.112,55.479c-3.543-0.871-12.276,0.417-15.377,0.149
			c-5.638,4.614-8.42,7.351-10.259,13.773c-2.897,10.12,3.563,23.87,12.996,29.542c7.633,4.589,23.562,7.42,36.529,0.353
			c-4.172-0.652-17.138-0.102-25.031-7.546C64.278,81.666,65.777,63.803,76.112,55.479z"/>
		<path clip-path="url(#XMLID_4_)" fill="#1FA2BF" d="M186.547,119.233c-13.737,0-13.737-6.617-27.475-6.617
			s-13.737,6.617-27.475,6.617s-13.737-6.617-27.475-6.617c-13.737,0-13.737,6.617-27.474,6.617
			c-13.735,0-13.735-6.617-27.471-6.617c-13.735,0-13.735,6.617-27.47,6.617c-11.071,0-13.221-4.298-20.831-5.965
			C7.368,162.224,49.271,200,100,200c49.529,0,90.643-36.012,98.601-83.278C195.647,118.071,192.303,119.233,186.547,119.233z"/>
		<path clip-path="url(#XMLID_4_)" fill="#41BAD5" d="M4.33,129.18C16.817,170.172,54.923,200,100,200
			c43.964,0,81.301-28.372,94.703-67.805c-4.458-1.928-7.71-4.438-16.172-4.438c-13.737,0-13.737,6.618-27.475,6.618
			s-13.737-6.618-27.475-6.618c-13.735,0-13.735,6.618-27.473,6.618c-13.735,0-13.735-6.618-27.471-6.618
			c-13.735,0-13.735,6.618-27.47,6.618c-13.734,0-13.734-6.618-27.467-6.618C9.594,127.758,6.716,128.351,4.33,129.18z"/>
		<path clip-path="url(#XMLID_4_)" fill="#62D2EB" d="M100,200c38.042,0,71.122-21.244,88.026-52.515
			c-4.545,1.937-7.771,4.51-16.337,4.51c-13.737,0-13.737-6.617-27.475-6.617c-13.735,0-13.735,6.617-27.473,6.617
			c-13.735,0-13.735-6.617-27.471-6.617c-13.735,0-13.735,6.617-27.47,6.617c-13.733,0-13.733-6.617-27.467-6.617
			c-10.779,0-13.101,4.073-20.239,5.828C31.551,180.428,63.488,200,100,200z"/>
		<path clip-path="url(#XMLID_4_)" fill="#8FE4F7" d="M100,200c29.682,0,56.338-12.937,74.652-33.474
			c-3.317-1.595-6.747-3.135-13.374-3.135c-13.737,0-13.737,6.618-27.475,6.618s-13.737-6.618-27.475-6.618
			c-13.737,0-13.737,6.618-27.474,6.618c-13.735,0-13.735-6.618-27.471-6.618c-12.073,0-13.538,5.111-23.042,6.35
			C46.509,188.403,71.899,200,100,200z"/>
		<path clip-path="url(#XMLID_4_)" fill="#007F9C" d="M71.005,44.288c-27.225,2.214-37.389,18.104-51.711,36.939
			c-0.69,0.907-1.435,1.795-2.075,2.738c6.202-2.761,20.424-18.548,40.626-18.247c5.347,0.079,9.711,6.461,13.434,4.959
			c3.416-1.377,2.037-4.178,2.037-6.968c0-2.686,2.271-1.995,4.012-1.232c3.246,1.422,6.34,3.064,9.763,4.072
			c1.165,0.343,5.156,2.279,6.42-1.007c0.369-0.962-0.89-3.535-0.426-4.444c1.131-2.21,4.504-0.919,9.283,1.287
			c1.719,0.794,7.262,3.309,9.743-0.644C100.098,51.628,84.676,43.176,71.005,44.288z"/>
		<path clip-path="url(#XMLID_4_)" fill="#41BAD5" d="M113.956,54.692c7.987-0.988,7.628,11.788,14.73,9.568
			c1.71-0.535,1.417-3.436,0.984-4.818c-1.521-4.866-8.192-7.504-13.332-5.896C115.492,53.809,114.688,54.189,113.956,54.692z"/>
	</g>
</g>
</svg>
