<svg id="Layer_1" data-name="Layer 1" xmlns="http://www.w3.org/2000/svg" viewBox="0 0 99.28 14.46"><defs><style>.cls-1{fill:#ffd25e;}</style></defs><path class="cls-1" d="M6.29,1.56a1.24,1.24,0,0,1,.77.36c.29.24.43.44.43.59a16.24,16.24,0,0,1-.36,2.62,28.23,28.23,0,0,1-.9,3.57c-.37,1.14-.7,1.7-1,1.7a.93.93,0,0,1-.47-.19,1,1,0,0,1-.38-.47c-.06-.18-.19-.56-.37-1.12q-.64-2-1.2-3.24c-.06.24-.13.58-.22,1s-.17.78-.23,1-.12.56-.2.92S2,9,2,9.19s-.13.42-.2.63c-.13.39-.25.58-.36.58S1,10.26.77,10a1.28,1.28,0,0,1-.39-.76c0-.21.23-1.33.69-3.34a38,38,0,0,0,.75-3.79c0-.31.12-.46.28-.46a.94.94,0,0,1,.52.24,2.34,2.34,0,0,1,.55.58A12.72,12.72,0,0,1,4,4.67c.41,1.25.73,2.15,1,2.7a26,26,0,0,0,.87-4.2C6,2.42,6,2,6.06,1.81S6.17,1.56,6.29,1.56Z" transform="translate(-0.38 -1.56)"/><path class="cls-1" d="M13,7a.5.5,0,0,1,.22.35A2.84,2.84,0,0,1,13,8c-.09.33-.16.59-.19.77s-.06.32-.08.42,0,.19,0,.25,0,.13,0,.22l0,.21c0,.05,0,.11-.05.18a.91.91,0,0,1-.06.16l-.09.11a.27.27,0,0,1-.24.1c-.11,0-.25-.12-.41-.34a2.38,2.38,0,0,1-.37-.82,3.07,3.07,0,0,1-1.89,1.16,1.7,1.7,0,0,1-1.12-.57,1.61,1.61,0,0,1-.6-1.14,4,4,0,0,1,.52-1.63,7.26,7.26,0,0,1,1.41-2,2.53,2.53,0,0,1,1.77-.9,1.91,1.91,0,0,1,1.16.59,1.58,1.58,0,0,1,.66,1.08A2.37,2.37,0,0,1,13,7ZM9.48,8.9a2.28,2.28,0,0,0,1.28-.65,2.79,2.79,0,0,0,1-1.65c0-.1.07-.15.2-.17,0-.45-.1-.68-.23-.68a1.64,1.64,0,0,0-1.07.62,6,6,0,0,0-1,1.33,2.67,2.67,0,0,0-.38,1,.17.17,0,0,0,0,.12A.24.24,0,0,0,9.48,8.9Z" transform="translate(-0.38 -1.56)"/><path class="cls-1" d="M16.82,6.56c-.13.39-.28.87-.46,1.46s-.27.89-.27.93.07.05.2.05a4,4,0,0,0,.94-.27,4.75,4.75,0,0,1,.88-.27c.2,0,.3.14.3.41s-.27.6-.81,1a2.84,2.84,0,0,1-1.68.57A1.58,1.58,0,0,1,15,10a1.16,1.16,0,0,1-.53-.86,7,7,0,0,1,.37-1.51c.24-.78.41-1.31.5-1.59a3.28,3.28,0,0,1-.71.13.69.69,0,0,1-.5-.33,1,1,0,0,1-.27-.63c0-.26.62-.47,1.86-.65A10,10,0,0,0,16,2.63a.32.32,0,0,1,.36-.36,1.41,1.41,0,0,1,.8.38,1,1,0,0,1,.48.74,5,5,0,0,1-.15,1l.87,0c.6,0,.9.14.9.41s-.17.33-.52.45a12.55,12.55,0,0,1-1.6.4C17,5.87,16.94,6.17,16.82,6.56Z" transform="translate(-0.38 -1.56)"/><path class="cls-1" d="M23.62,4.52a.37.37,0,0,1,.38-.3c.19,0,.41.17.67.5a1.46,1.46,0,0,1,.37.85,16.79,16.79,0,0,1-.55,1.76c-.37,1.09-.65,1.95-.85,2.58-.11.34-.3.51-.56.51a.54.54,0,0,1-.41-.18.81.81,0,0,1-.16-.54,5.37,5.37,0,0,1,.15-1.06c-.83,1.18-1.48,1.78-2,1.78a1.53,1.53,0,0,1-.93-.5,1.38,1.38,0,0,1-.54-1A8.89,8.89,0,0,1,19.88,6c.43-1.19.84-1.79,1.23-1.79a.81.81,0,0,1,.62.32,1,1,0,0,1,.27.68,3.18,3.18,0,0,1-.3.8,8.2,8.2,0,0,0-.92,2.8s0,.07.06.07.35-.19.68-.57a10.65,10.65,0,0,0,1.12-1.63A11.33,11.33,0,0,0,23.62,4.52Z" transform="translate(-0.38 -1.56)"/><path class="cls-1" d="M25.9,6.25,25.82,4.9c0-.45.14-.68.42-.68a.8.8,0,0,1,.48.18,1.14,1.14,0,0,1,.35.57,3.3,3.3,0,0,1,.9-.58,2.09,2.09,0,0,1,.85-.23c.59,0,.88.14.88.42a.54.54,0,0,1-.08.32l-.12.15a.94.94,0,0,1-.14.13l-.15.11c-.19.12-.32.21-.4.25a3.8,3.8,0,0,0-.92.81,3.23,3.23,0,0,0-.58,1.32,11.25,11.25,0,0,1-.63,2.06c-.2.45-.43.67-.68.67a.62.62,0,0,1-.57-.36,1.5,1.5,0,0,1-.18-.67,3.26,3.26,0,0,1,.23-1,6.81,6.81,0,0,0,.33-1.1A5.52,5.52,0,0,0,25.9,6.25Z" transform="translate(-0.38 -1.56)"/><path class="cls-1" d="M34.16,7.52A3.13,3.13,0,0,1,32.52,8a6.54,6.54,0,0,1-1.38-.12,2.11,2.11,0,0,0-.11.65.75.75,0,0,0,.11.46c.07.09.25.14.54.14A6.24,6.24,0,0,0,33.22,9l.67-.17c.33,0,.49.11.49.33s-.26.61-.77.89a3.73,3.73,0,0,1-1.79.42,2.18,2.18,0,0,1-1.63-.64,2.09,2.09,0,0,1-.61-1.51,3.8,3.8,0,0,1,.51-1.81,5.18,5.18,0,0,1,1.28-1.59,2.39,2.39,0,0,1,1.53-.65A1.86,1.86,0,0,1,34.31,5,2.32,2.32,0,0,1,35,6.47C35,6.86,34.69,7.21,34.16,7.52Zm-.85-1.59a.74.74,0,0,0-.47-.23,1,1,0,0,0-.57.32,3.81,3.81,0,0,0-.66.82h.31c1.1,0,1.64-.19,1.64-.57C33.56,6.2,33.48,6.08,33.31,5.93Z" transform="translate(-0.38 -1.56)"/><path class="cls-1" d="M45,1.6c.23,0,.47.19.74.59a1.94,1.94,0,0,1,.39,1c0,.25,0,.38-.15.38a1.39,1.39,0,0,1-.31,0,2.15,2.15,0,0,0-.4,0,2.25,2.25,0,0,0-1.41.76,7.54,7.54,0,0,0-1.37,1.84,4.07,4.07,0,0,0-.57,1.85,1,1,0,0,0,.12.56.5.5,0,0,0,.43.17,5.85,5.85,0,0,0,1.68-.25,10.93,10.93,0,0,0,1.41-.51,3.12,3.12,0,0,1,.63-.26s.1,0,.15.14a.67.67,0,0,1,.08.33c0,.27-.22.59-.65,1a6,6,0,0,1-1.56,1,4.36,4.36,0,0,1-1.67.39A2.26,2.26,0,0,1,41,9.5a2.61,2.61,0,0,1-.82-1.71,5.89,5.89,0,0,1,.73-2.6A9,9,0,0,1,42.8,2.66,3.36,3.36,0,0,1,45,1.6Z" transform="translate(-0.38 -1.56)"/><path class="cls-1" d="M48.33,5.56c.62-.9,1.23-1.35,1.84-1.35a2.1,2.1,0,0,1,1.54.64,2.18,2.18,0,0,1,.62,1.55,4.3,4.3,0,0,1-.43,1.84A4.16,4.16,0,0,1,50.69,9.8a2.66,2.66,0,0,1-1.67.62,1.44,1.44,0,0,1-1.14-.59A2.19,2.19,0,0,1,47.4,8.4,4.89,4.89,0,0,1,48.33,5.56Zm2,2.47a3.46,3.46,0,0,0,.48-1.65,1.78,1.78,0,0,0-.22-1,3.14,3.14,0,0,0-1,1.26A3.7,3.7,0,0,0,49,8.27a1.89,1.89,0,0,0,.14.92A2.54,2.54,0,0,0,50.28,8Z" transform="translate(-0.38 -1.56)"/><path class="cls-1" d="M61,4.22q.47,0,.78.63A2.65,2.65,0,0,1,62.1,6a9.1,9.1,0,0,1-.2,1.53,8.86,8.86,0,0,1-.62,2c-.29.63-.59.95-.92.95s-.4-.18-.4-.54a8.31,8.31,0,0,1,.32-1.77,9,9,0,0,0,.31-1.61c0-.25,0-.38-.12-.38s-.37.18-.6.55-.51.86-.84,1.48-.52,1-.6,1.19l-.2.42a3.58,3.58,0,0,1-.18.32q-.37.63-1,0a.92.92,0,0,1-.32-.59s.07-.34.2-.92a9.08,9.08,0,0,0,.2-2c0-.31,0-.47-.11-.47s-.21.1-.34.29-.32.54-.59,1-.49.92-.68,1.25c-.67,1.14-1.18,1.72-1.53,1.72q-.27,0-.66-.45a1.24,1.24,0,0,1-.39-.68,5.6,5.6,0,0,1,.27-1.12,8.86,8.86,0,0,0,.35-1.91c0-.67.1-1.19.14-1.57s.14-.56.29-.56a1.3,1.3,0,0,1,.88.38,1,1,0,0,1,.42.69,10.66,10.66,0,0,1-.51,2.47A12.34,12.34,0,0,1,56.06,5a1.66,1.66,0,0,1,1.18-.74c.21,0,.46.2.77.58a1.76,1.76,0,0,1,.47,1.07c0,.34,0,.63,0,.87A5.4,5.4,0,0,1,59.59,5,2.09,2.09,0,0,1,61,4.22Z" transform="translate(-0.38 -1.56)"/><path class="cls-1" d="M67.11,4.24c.3,0,.62.26,1,.79a2.89,2.89,0,0,1,.51,1.58,2.3,2.3,0,0,1-.41,1.14,5.66,5.66,0,0,1-1,1.24,5.81,5.81,0,0,1-1.42,1,3.36,3.36,0,0,1-1.55.41H64c-.5,2.1-.86,3.15-1.07,3.15s-.34-.14-.53-.42a1.35,1.35,0,0,1-.28-.7,11.57,11.57,0,0,1,.34-1.69,29.18,29.18,0,0,0,1-6.34c0-.24.11-.36.34-.36a1.36,1.36,0,0,1,.74.33,1.34,1.34,0,0,1,.55.84A2.94,2.94,0,0,1,67.11,4.24Zm-.94,3.69A2.35,2.35,0,0,0,67,6.46c0-.42-.12-.63-.35-.63a1.56,1.56,0,0,0-1.07.58,3.67,3.67,0,0,0-.5.71,4.77,4.77,0,0,0-.48,1.09L64.4,9A3.33,3.33,0,0,0,66.17,7.93Z" transform="translate(-0.38 -1.56)"/><path class="cls-1" d="M74.31,7a.5.5,0,0,1,.22.35,3.25,3.25,0,0,1-.14.64c-.1.33-.16.59-.2.77s0,.32-.07.42l-.05.25a1.15,1.15,0,0,1,0,.22,1.65,1.65,0,0,1,0,.21c0,.05,0,.11,0,.18a.84.84,0,0,1-.07.16l-.08.11a.3.3,0,0,1-.24.1c-.12,0-.25-.12-.42-.34a2.37,2.37,0,0,1-.36-.82,3.11,3.11,0,0,1-1.9,1.16,1.72,1.72,0,0,1-1.12-.57,1.6,1.6,0,0,1-.59-1.14,4.16,4.16,0,0,1,.51-1.63,7.26,7.26,0,0,1,1.41-2,2.57,2.57,0,0,1,1.77-.9A1.88,1.88,0,0,1,74,4.81a1.58,1.58,0,0,1,.66,1.08A2.37,2.37,0,0,1,74.31,7ZM70.82,8.9a2.28,2.28,0,0,0,1.28-.65,2.79,2.79,0,0,0,1-1.65c0-.1.08-.15.2-.17,0-.45-.1-.68-.22-.68A1.66,1.66,0,0,0,72,6.37,6.36,6.36,0,0,0,71,7.7a2.67,2.67,0,0,0-.38,1,.17.17,0,0,0,0,.12A.24.24,0,0,0,70.82,8.9Z" transform="translate(-0.38 -1.56)"/><path class="cls-1" d="M79.75,4.22a1.42,1.42,0,0,1,1.1.56A1.84,1.84,0,0,1,81.32,6,7.47,7.47,0,0,1,81,8.11a6.73,6.73,0,0,1-.72,1.71c-.26.4-.52.6-.79.6s-.4-.19-.4-.57a7.81,7.81,0,0,1,.39-1.74,6.81,6.81,0,0,0,.31-1.55c0-.31,0-.46-.12-.46a.43.43,0,0,0-.31.15l-.25.28-.22.3-.22.34-.22.38c-.1.16-.17.29-.22.39L78,8.33c-.74,1.39-1.33,2.09-1.75,2.09-.17,0-.38-.15-.64-.44a1.24,1.24,0,0,1-.38-.64,1.89,1.89,0,0,1,.17-.57c.12-.3.2-.52.25-.68a3.51,3.51,0,0,0,.13-.49A4.85,4.85,0,0,0,75.87,7q0-.32.06-.48c0-.11,0-.29,0-.53a9.11,9.11,0,0,1,.19-1.72c0-.12.11-.17.17-.17a1.28,1.28,0,0,1,.88.38,1,1,0,0,1,.42.69,8.65,8.65,0,0,1-.39,2.13,25.22,25.22,0,0,1,1.42-2.24C79.09,4.51,79.45,4.22,79.75,4.22Z" transform="translate(-0.38 -1.56)"/><path class="cls-1" d="M83.34,4.22a.92.92,0,0,1,.75.48,1.65,1.65,0,0,1,.33.93A11,11,0,0,1,84,7.27c-.27.94-.55,1.83-.82,2.67a.57.57,0,0,1-.59.46.63.63,0,0,1-.46-.19.73.73,0,0,1-.2-.52,10.47,10.47,0,0,1,.31-1.58c.21-.85.36-1.57.47-2.16A10.76,10.76,0,0,1,83,4.64Q83.14,4.22,83.34,4.22Zm-.18-1.5a1,1,0,0,1,.28-.64A.77.77,0,0,1,84,1.75c.18,0,.4.22.64.65a2.31,2.31,0,0,1,.38.94.54.54,0,0,1-.2.45.58.58,0,0,1-.39.16,1.26,1.26,0,0,1-.81-.46A1.24,1.24,0,0,1,83.16,2.72Z" transform="translate(-0.38 -1.56)"/><path class="cls-1" d="M86,5.56c.62-.9,1.24-1.35,1.85-1.35a2.09,2.09,0,0,1,1.53.64A2.14,2.14,0,0,1,90,6.4a4.3,4.3,0,0,1-.43,1.84A4.06,4.06,0,0,1,88.33,9.8a2.64,2.64,0,0,1-1.67.62,1.44,1.44,0,0,1-1.14-.59A2.19,2.19,0,0,1,85,8.4,4.89,4.89,0,0,1,86,5.56Zm2,2.47a3.46,3.46,0,0,0,.48-1.65,1.87,1.87,0,0,0-.21-1,3.07,3.07,0,0,0-1,1.26,3.7,3.7,0,0,0-.51,1.68,1.75,1.75,0,0,0,.15.92A2.52,2.52,0,0,0,87.92,8Z" transform="translate(-0.38 -1.56)"/><path class="cls-1" d="M95,4.22a1.42,1.42,0,0,1,1.1.56A1.84,1.84,0,0,1,96.56,6a7.47,7.47,0,0,1-.33,2.13,6.73,6.73,0,0,1-.72,1.71c-.26.4-.52.6-.79.6s-.4-.19-.4-.57a7.81,7.81,0,0,1,.39-1.74A6.64,6.64,0,0,0,95,6.56c0-.31,0-.46-.12-.46a.43.43,0,0,0-.3.15l-.25.28c-.06.08-.14.18-.22.3l-.22.34-.22.38-.23.39-.21.39c-.75,1.39-1.33,2.09-1.75,2.09-.17,0-.38-.15-.64-.44a1.24,1.24,0,0,1-.38-.64,1.89,1.89,0,0,1,.17-.57c.12-.3.2-.52.25-.68A3.51,3.51,0,0,0,91,7.6,4.85,4.85,0,0,0,91.11,7q0-.32.06-.48c0-.11,0-.29,0-.53A9.11,9.11,0,0,1,91.4,4.3c0-.12.11-.17.17-.17a1.28,1.28,0,0,1,.88.38,1,1,0,0,1,.42.69,8.65,8.65,0,0,1-.39,2.13A25.22,25.22,0,0,1,93.9,5.09C94.33,4.51,94.69,4.22,95,4.22Z" transform="translate(-0.38 -1.56)"/><path class="cls-1" d="M68.42,12.49a1,1,0,0,1,.89.47,2.08,2.08,0,0,1,.3,1.16,2.5,2.5,0,0,1-.35,1.29,1,1,0,0,1-.8.57.5.5,0,0,1-.47-.36,3.32,3.32,0,0,1-.2-1l-.48.67c-.34.48-.59.72-.73.72s-.11,0-.18-.13a.52.52,0,0,1-.11-.33c0-.13,0-.54.14-1.23a13.14,13.14,0,0,0,.13-1.62c0-.12,0-.18.11-.18a.43.43,0,0,1,.26.12.36.36,0,0,1,.15.24c0,.07-.06.43-.17,1.06s-.18,1.13-.21,1.49a7.45,7.45,0,0,1,.69-.95c.26-.29.44-.44.55-.44s.19.25.23.75a2.66,2.66,0,0,0,.1.52c0,.15.12.23.2.23s.35-.15.49-.45a2.53,2.53,0,0,0,.2-1,1.46,1.46,0,0,0-.27-.94.39.39,0,0,0-.3-.17.38.38,0,0,1-.29-.12.29.29,0,0,1-.12-.2C68.18,12.54,68.26,12.49,68.42,12.49Z" transform="translate(-0.38 -1.56)"/><path class="cls-1" d="M72,14.36a.48.48,0,0,1-.28.43,1.31,1.31,0,0,1-.65.17,2.65,2.65,0,0,1-.66-.08,1.24,1.24,0,0,0-.07.39.31.31,0,0,0,.11.27.54.54,0,0,0,.35.09,1.51,1.51,0,0,0,.51-.08l.29-.09c.09,0,.13,0,.13.1s-.1.19-.31.29a1.22,1.22,0,0,1-.59.16.93.93,0,0,1-.64-.23.79.79,0,0,1-.24-.59,1.63,1.63,0,0,1,.19-.74,2.19,2.19,0,0,1,.49-.66.94.94,0,0,1,.59-.26.69.69,0,0,1,.54.28A.86.86,0,0,1,72,14.36Zm-.75-.44a.61.61,0,0,0-.39.2,1.89,1.89,0,0,0-.34.47,2.16,2.16,0,0,0,.46.05,1.15,1.15,0,0,0,.44-.08c.13-.06.19-.13.19-.22a.45.45,0,0,0-.12-.28A.34.34,0,0,0,71.24,13.92Z" transform="translate(-0.38 -1.56)"/><path class="cls-1" d="M73.68,13.53a.41.41,0,0,1,.32.19.54.54,0,0,1,.15.32c0,.06,0,.09-.08.09A.34.34,0,0,1,73.9,14a.38.38,0,0,0-.24-.08.9.9,0,0,0-.37.13c-.18.1-.26.2-.26.3s.15.21.46.4a1.19,1.19,0,0,1,.32.28.59.59,0,0,1,.14.37.49.49,0,0,1-.27.38A1.1,1.1,0,0,1,73,16a1.17,1.17,0,0,1-.64-.18c-.18-.11-.28-.22-.28-.33a.13.13,0,0,1,0-.1.12.12,0,0,1,.08,0,.35.35,0,0,1,.14.07,1,1,0,0,0,.56.19,1,1,0,0,0,.42-.06.21.21,0,0,0,.13-.18.31.31,0,0,0-.14-.24,1.86,1.86,0,0,0-.32-.23,2.43,2.43,0,0,1-.32-.24.46.46,0,0,1-.14-.3c0-.18.14-.36.42-.55A1.33,1.33,0,0,1,73.68,13.53Z" transform="translate(-0.38 -1.56)"/><path class="cls-1" d="M74.94,15.51c0,.06,0,.09.11.09a1.28,1.28,0,0,0,.46-.1l.3-.11a.08.08,0,0,1,.09.09c0,.1-.1.21-.29.34a1,1,0,0,1-.54.19.61.61,0,0,1-.41-.13.39.39,0,0,1-.16-.28,1.34,1.34,0,0,1,.06-.35c0-.15.1-.34.18-.58s.13-.43.17-.59a1.31,1.31,0,0,1-.31.05.21.21,0,0,1-.16-.08.25.25,0,0,1-.08-.15c0-.09.22-.16.65-.23a3.61,3.61,0,0,0,.09-.74c0-.1,0-.15.1-.15a.36.36,0,0,1,.21.11.3.3,0,0,1,.13.24,2.12,2.12,0,0,1-.09.47l.46,0c.2,0,.3,0,.3.13s-.06.09-.16.12a6.26,6.26,0,0,1-.69.16c-.07.26-.15.56-.26.9A3.11,3.11,0,0,0,74.94,15.51Z" transform="translate(-0.38 -1.56)"/><path class="cls-1" d="M78.31,14.36a.49.49,0,0,1-.29.43,1.29,1.29,0,0,1-.65.17,2.71,2.71,0,0,1-.66-.08,1.61,1.61,0,0,0-.07.39.34.34,0,0,0,.11.27.56.56,0,0,0,.36.09,1.59,1.59,0,0,0,.51-.08l.28-.09c.09,0,.13,0,.13.1s-.1.19-.3.29a1.23,1.23,0,0,1-.6.16.89.89,0,0,1-.63-.23.8.8,0,0,1-.25-.59,1.77,1.77,0,0,1,.19-.74,2.19,2.19,0,0,1,.49-.66.94.94,0,0,1,.6-.26.71.71,0,0,1,.54.28A.86.86,0,0,1,78.31,14.36Zm-.76-.44a.57.57,0,0,0-.38.2,1.67,1.67,0,0,0-.34.47,2,2,0,0,0,.45.05,1.25,1.25,0,0,0,.45-.08c.13-.06.19-.13.19-.22a.45.45,0,0,0-.12-.28A.38.38,0,0,0,77.55,13.92Z" transform="translate(-0.38 -1.56)"/><path class="cls-1" d="M78.86,14.14v-.37c0-.16,0-.24.11-.24a.24.24,0,0,1,.18.12.48.48,0,0,1,.09.29,1.63,1.63,0,0,1,0,.25c.29-.44.56-.65.82-.65s.25,0,.25.11a.17.17,0,0,1-.06.12.71.71,0,0,1-.17.11,1.1,1.1,0,0,0-.45.35,2.35,2.35,0,0,0-.3.54l-.18.5c0,.14-.08.25-.1.32a1.55,1.55,0,0,1-.08.23c0,.13-.12.2-.19.2a.14.14,0,0,1-.13-.1.35.35,0,0,1-.06-.19,1.62,1.62,0,0,1,.09-.37A3.8,3.8,0,0,0,78.86,14.14Z" transform="translate(-0.38 -1.56)"/><path class="cls-1" d="M81.49,13.93c.2-.27.37-.4.5-.4a.5.5,0,0,1,.36.2.66.66,0,0,1,.17.44,3,3,0,0,1-.16.88q-.3,1-.54,1c-.07,0-.11-.05-.11-.15a1.51,1.51,0,0,1,.11-.43c.07-.21.13-.42.2-.63a1.93,1.93,0,0,0,.09-.47.51.51,0,0,0,0-.24C82,14,82,14,82,14a.17.17,0,0,0-.1,0,.47.47,0,0,0-.11.1l-.12.14s-.08.11-.14.19l-.14.21c0,.06-.09.14-.16.25a2.27,2.27,0,0,1-.16.25,2.38,2.38,0,0,1-.14.23l-.14.23a1.4,1.4,0,0,0-.12.18c-.08.12-.15.18-.2.18s-.1,0-.17-.11a.35.35,0,0,1-.09-.2.87.87,0,0,1,0-.14,7.11,7.11,0,0,0,.21-.71,4.06,4.06,0,0,0,.13-1c0-.25,0-.37.1-.37a.31.31,0,0,1,.22.11.36.36,0,0,1,.11.26,2.65,2.65,0,0,1-.08.53,7,7,0,0,1-.19.73A13.26,13.26,0,0,1,81.49,13.93Z" transform="translate(-0.38 -1.56)"/><path class="cls-1" d="M87.08,12.5a.36.36,0,0,1,.27.16.5.5,0,0,1,.14.27c0,.07,0,.11,0,.11a.43.43,0,0,1-.14,0,.72.72,0,0,0-.19,0,.82.82,0,0,0-.47.21,2.68,2.68,0,0,0-.53.49,3.46,3.46,0,0,0-.42.67,1.56,1.56,0,0,0-.18.65.51.51,0,0,0,.15.41.55.55,0,0,0,.37.13,2,2,0,0,0,.47-.07,1.74,1.74,0,0,0,.4-.16,3.43,3.43,0,0,1,.44-.21c.06,0,.09,0,.09.11s-.08.18-.23.3a2.2,2.2,0,0,1-.57.34A1.55,1.55,0,0,1,86,16a1,1,0,0,1-.66-.3.91.91,0,0,1-.31-.67A2.28,2.28,0,0,1,85.37,14a3.33,3.33,0,0,1,.79-1A1.44,1.44,0,0,1,87.08,12.5Z" transform="translate(-0.38 -1.56)"/><path class="cls-1" d="M89.63,13.76a.65.65,0,0,1,.19.41.64.64,0,0,1-.13.37.22.22,0,0,1,.06.13,3.32,3.32,0,0,1-.06.48,4.26,4.26,0,0,0-.07.44,1.39,1.39,0,0,1,0,.17.5.5,0,0,1,0,.12c0,.09,0,.13-.09.13s-.11-.05-.15-.16a1.38,1.38,0,0,1-.07-.41c-.29.38-.57.57-.82.57a.68.68,0,0,1-.45-.2.56.56,0,0,1-.23-.41,1.91,1.91,0,0,1,.22-.74,3,3,0,0,1,.57-.78,1,1,0,0,1,.66-.35A.56.56,0,0,1,89.63,13.76Zm-.19.65c0-.31-.06-.47-.18-.47a.76.76,0,0,0-.46.28,3.09,3.09,0,0,0-.44.63,1.32,1.32,0,0,0-.18.55.17.17,0,0,0,.07.14.26.26,0,0,0,.17.05.79.79,0,0,0,.53-.31,1.72,1.72,0,0,0,.41-.78s0-.08.08-.08Z" transform="translate(-0.38 -1.56)"/><path class="cls-1" d="M91.5,13.93c.2-.27.37-.4.5-.4a.5.5,0,0,1,.36.2.66.66,0,0,1,.17.44,3,3,0,0,1-.16.88q-.3,1-.54,1c-.07,0-.11-.05-.11-.15a1.51,1.51,0,0,1,.11-.43c.07-.21.13-.42.2-.63a1.93,1.93,0,0,0,.09-.47.51.51,0,0,0-.05-.24C92,14,92,14,92,14a.17.17,0,0,0-.1,0,.33.33,0,0,0-.11.1l-.12.14s-.08.11-.14.19l-.14.21c0,.06-.09.14-.16.25a2.27,2.27,0,0,1-.16.25,2.38,2.38,0,0,1-.14.23l-.14.23a1.4,1.4,0,0,0-.12.18c-.08.12-.15.18-.2.18s-.1,0-.17-.11a.35.35,0,0,1-.09-.2.87.87,0,0,1,0-.14,7.11,7.11,0,0,0,.21-.71,4.06,4.06,0,0,0,.13-1c0-.25,0-.37.1-.37a.31.31,0,0,1,.22.11.36.36,0,0,1,.11.26,2.65,2.65,0,0,1-.08.53,7,7,0,0,1-.19.73A13.26,13.26,0,0,1,91.5,13.93Z" transform="translate(-0.38 -1.56)"/><path class="cls-1" d="M94.64,13.76a.65.65,0,0,1,.19.41.64.64,0,0,1-.13.37.22.22,0,0,1,.06.13,3.32,3.32,0,0,1-.06.48,4.26,4.26,0,0,0-.07.44,1.39,1.39,0,0,1,0,.17.5.5,0,0,1,0,.12c0,.09,0,.13-.09.13s-.11-.05-.15-.16a1.38,1.38,0,0,1-.07-.41c-.29.38-.57.57-.82.57a.68.68,0,0,1-.45-.2.56.56,0,0,1-.23-.41,1.91,1.91,0,0,1,.22-.74,3,3,0,0,1,.57-.78,1,1,0,0,1,.66-.35A.56.56,0,0,1,94.64,13.76Zm-.19.65c0-.31-.06-.47-.18-.47a.76.76,0,0,0-.46.28,3.09,3.09,0,0,0-.44.63,1.32,1.32,0,0,0-.18.55.17.17,0,0,0,.07.14.25.25,0,0,0,.17.05.79.79,0,0,0,.53-.31,1.72,1.72,0,0,0,.41-.78s0-.08.08-.08Z" transform="translate(-0.38 -1.56)"/><path class="cls-1" d="M97.38,12.13c.05,0,.12,0,.2.15a.5.5,0,0,1,.11.28,6,6,0,0,1-.12.73c-.08.41-.18.83-.29,1.26-.24,1-.4,1.46-.48,1.46a.25.25,0,0,1-.15-.09.28.28,0,0,1-.08-.15,2.23,2.23,0,0,1,0-.26,1.33,1.33,0,0,1-.85.5.54.54,0,0,1-.4-.2.61.61,0,0,1-.18-.41,2.1,2.1,0,0,1,.17-.74,2.42,2.42,0,0,1,.48-.78.93.93,0,0,1,.67-.35c.24,0,.4.14.5.43a9.63,9.63,0,0,0,.28-1.68C97.27,12.18,97.3,12.13,97.38,12.13Zm-.55,2.45a1,1,0,0,0-.09-.45c-.07-.12-.14-.19-.23-.19a.62.62,0,0,0-.44.27,1.94,1.94,0,0,0-.35.61,1.66,1.66,0,0,0-.14.59.18.18,0,0,0,.07.15.25.25,0,0,0,.15,0,.93.93,0,0,0,.53-.28,1.7,1.7,0,0,0,.48-.66l0-.06Z" transform="translate(-0.38 -1.56)"/><path class="cls-1" d="M99.48,13.76a.65.65,0,0,1,.19.41.64.64,0,0,1-.13.37.22.22,0,0,1,.06.13,3.32,3.32,0,0,1-.06.48,4.26,4.26,0,0,0-.07.44,1.39,1.39,0,0,1,0,.17.5.5,0,0,1,0,.12c0,.09,0,.13-.09.13s-.11-.05-.15-.16a1.38,1.38,0,0,1-.07-.41c-.29.38-.57.57-.82.57a.66.66,0,0,1-.45-.2.56.56,0,0,1-.23-.41,1.91,1.91,0,0,1,.22-.74,3,3,0,0,1,.57-.78,1,1,0,0,1,.66-.35A.56.56,0,0,1,99.48,13.76Zm-.19.65c0-.31-.06-.47-.18-.47a.76.76,0,0,0-.46.28,3.09,3.09,0,0,0-.44.63,1.32,1.32,0,0,0-.18.55.17.17,0,0,0,.07.14.25.25,0,0,0,.17.05.79.79,0,0,0,.53-.31,1.82,1.82,0,0,0,.41-.78s0-.08.08-.08Z" transform="translate(-0.38 -1.56)"/></svg>