<svg id="Layer_1" data-name="Layer 1" xmlns="http://www.w3.org/2000/svg" viewBox="0 0 96.18 11.98"><defs><style>.cls-1{fill:#ffd25e;}</style></defs><path class="cls-1" d="M5.9,0a1.27,1.27,0,0,1,.78.36C7,.6,7.1.8,7.1,1a15.89,15.89,0,0,1-.35,2.62,30.05,30.05,0,0,1-.91,3.57c-.36,1.14-.7,1.7-1,1.7a.9.9,0,0,1-.47-.19A1,1,0,0,1,4,8.18c-.07-.18-.19-.56-.38-1.12a32.27,32.27,0,0,0-1.2-3.24c0,.24-.13.58-.22,1S2,5.62,2,5.87s-.12.56-.2.92-.15.63-.21.84-.13.42-.2.63c-.13.39-.25.58-.36.58S.64,8.7.38,8.41A1.31,1.31,0,0,1,0,7.65c0-.21.23-1.33.69-3.34A38,38,0,0,0,1.44.52c0-.31.12-.46.28-.46A1,1,0,0,1,2.24.3a2.54,2.54,0,0,1,.55.58,12.72,12.72,0,0,1,.85,2.23c.4,1.25.73,2.15,1,2.7a25.18,25.18,0,0,0,.86-4.2c.11-.75.17-1.2.21-1.36S5.78,0,5.9,0Z"/><path class="cls-1" d="M12.59,5.45a.51.51,0,0,1,.21.35,2.63,2.63,0,0,1-.14.64,6.4,6.4,0,0,0-.19.77c0,.18-.06.32-.08.42s0,.19,0,.25,0,.13,0,.22l-.05.21s0,.11,0,.18a.48.48,0,0,1-.07.16l-.08.11a.3.3,0,0,1-.24.1c-.11,0-.25-.12-.41-.34A2.21,2.21,0,0,1,11,7.7a3.06,3.06,0,0,1-1.9,1.16A1.7,1.7,0,0,1,8,8.29a1.61,1.61,0,0,1-.6-1.14,4.16,4.16,0,0,1,.51-1.63,7.72,7.72,0,0,1,1.41-2,2.57,2.57,0,0,1,1.77-.9,1.9,1.9,0,0,1,1.17.59A1.58,1.58,0,0,1,13,4.33,2.37,2.37,0,0,1,12.59,5.45ZM9.1,7.34a2.26,2.26,0,0,0,1.27-.65,2.7,2.7,0,0,0,1-1.65c0-.1.08-.15.21-.17,0-.45-.1-.68-.23-.68a1.62,1.62,0,0,0-1.07.62,6.41,6.41,0,0,0-1,1.33,2.61,2.61,0,0,0-.37,1.05.17.17,0,0,0,0,.12A.24.24,0,0,0,9.1,7.34Z"/><path class="cls-1" d="M16.43,5,16,6.46q-.27.87-.27.93s.06.05.2.05a4.08,4.08,0,0,0,.94-.27,4.77,4.77,0,0,1,.87-.27c.2,0,.3.14.3.41s-.26.6-.8,1a2.88,2.88,0,0,1-1.68.57,1.55,1.55,0,0,1-.91-.42,1.16,1.16,0,0,1-.53-.86,6.4,6.4,0,0,1,.37-1.51c.24-.78.41-1.31.49-1.59a3.21,3.21,0,0,1-.7.13.72.72,0,0,1-.51-.33,1.06,1.06,0,0,1-.26-.63c0-.26.62-.47,1.86-.65a10,10,0,0,0,.23-1.93.32.32,0,0,1,.36-.36,1.39,1.39,0,0,1,.79.38,1,1,0,0,1,.49.74,4.55,4.55,0,0,1-.16,1l.88,0c.6,0,.9.14.9.41s-.17.33-.52.45a12.55,12.55,0,0,1-1.6.4C16.65,4.31,16.56,4.61,16.43,5Z"/><path class="cls-1" d="M23.23,3a.38.38,0,0,1,.39-.3c.19,0,.41.17.66.5a1.49,1.49,0,0,1,.38.85,16.79,16.79,0,0,1-.55,1.76c-.37,1.09-.65,2-.85,2.58-.12.34-.3.51-.57.51a.52.52,0,0,1-.4-.18.76.76,0,0,1-.16-.54,6,6,0,0,1,.14-1.06c-.82,1.18-1.48,1.78-2,1.78a1.54,1.54,0,0,1-.92-.5,1.38,1.38,0,0,1-.54-1,9.1,9.1,0,0,1,.65-2.94c.44-1.19.85-1.79,1.23-1.79a.8.8,0,0,1,.62.32,1,1,0,0,1,.27.68,3.18,3.18,0,0,1-.3.8,8.11,8.11,0,0,0-.91,2.8s0,.07.06.07.35-.19.68-.57a10.7,10.7,0,0,0,1.11-1.63A10.74,10.74,0,0,0,23.23,3Z"/><path class="cls-1" d="M25.51,4.69l-.07-1.35c0-.45.14-.68.42-.68a.75.75,0,0,1,.47.18,1.08,1.08,0,0,1,.36.57,3.41,3.41,0,0,1,.89-.58,2.13,2.13,0,0,1,.86-.23c.58,0,.88.14.88.42a.54.54,0,0,1-.08.32l-.12.15a1.16,1.16,0,0,1-.15.13l-.15.11c-.18.12-.31.21-.39.25a4,4,0,0,0-.93.81,3.37,3.37,0,0,0-.57,1.32,13.1,13.1,0,0,1-.63,2.06c-.21.45-.43.67-.69.67a.59.59,0,0,1-.56-.36,1.52,1.52,0,0,1-.19-.67,3,3,0,0,1,.24-1,7.81,7.81,0,0,0,.32-1.1A5.52,5.52,0,0,0,25.51,4.69Z"/><path class="cls-1" d="M33.77,6a3.09,3.09,0,0,1-1.63.47,6.54,6.54,0,0,1-1.38-.12,1.85,1.85,0,0,0-.11.65.69.69,0,0,0,.11.46c.07.09.25.14.54.14a6.24,6.24,0,0,0,1.54-.17l.66-.17c.33,0,.5.11.5.33s-.26.61-.78.89a3.67,3.67,0,0,1-1.79.42,2.17,2.17,0,0,1-1.62-.64,2.09,2.09,0,0,1-.61-1.51,3.8,3.8,0,0,1,.51-1.81A5.16,5.16,0,0,1,31,3.31a2.43,2.43,0,0,1,1.53-.65,1.86,1.86,0,0,1,1.41.75,2.27,2.27,0,0,1,.65,1.5C34.57,5.3,34.31,5.65,33.77,6Zm-.84-1.59a.76.76,0,0,0-.48-.23,1,1,0,0,0-.57.32,3.81,3.81,0,0,0-.66.82h.32c1.09,0,1.64-.19,1.64-.57C33.18,4.64,33.1,4.52,32.93,4.37Z"/><path class="cls-1" d="M44.64,0c.22,0,.47.19.73.59a1.88,1.88,0,0,1,.4,1c0,.25-.05.38-.16.38a1.25,1.25,0,0,1-.3-.05,2.17,2.17,0,0,0-.41,0,2.23,2.23,0,0,0-1.4.76A7.3,7.3,0,0,0,42.13,4.5a4.07,4.07,0,0,0-.57,1.85,1,1,0,0,0,.12.56.5.5,0,0,0,.43.17,5.85,5.85,0,0,0,1.68-.25,10.73,10.73,0,0,0,1.4-.51,3.73,3.73,0,0,1,.63-.26s.11.05.16.14a.67.67,0,0,1,.08.33c0,.27-.22.59-.65,1a6,6,0,0,1-1.57,1,4.27,4.27,0,0,1-1.66.39,2.25,2.25,0,0,1-1.57-.9,2.66,2.66,0,0,1-.82-1.71,6,6,0,0,1,.73-2.6A9,9,0,0,1,42.41,1.1,3.4,3.4,0,0,1,44.64,0Z"/><path class="cls-1" d="M48,4c.62-.9,1.23-1.35,1.84-1.35a2.06,2.06,0,0,1,1.53.64A2.14,2.14,0,0,1,52,4.84a4.45,4.45,0,0,1-.43,1.84A4.19,4.19,0,0,1,50.3,8.24a2.64,2.64,0,0,1-1.66.62,1.44,1.44,0,0,1-1.14-.59A2.19,2.19,0,0,1,47,6.84,4.89,4.89,0,0,1,48,4ZM49.9,6.47a3.46,3.46,0,0,0,.48-1.65,1.86,1.86,0,0,0-.22-1.05,3.15,3.15,0,0,0-1,1.26,3.7,3.7,0,0,0-.51,1.68,1.75,1.75,0,0,0,.15.92A2.54,2.54,0,0,0,49.9,6.47Z"/><path class="cls-1" d="M60.62,2.66q.48,0,.78.63a2.53,2.53,0,0,1,.32,1.14A9.1,9.1,0,0,1,61.52,6a8.38,8.38,0,0,1-.63,2c-.28.63-.59.95-.91.95s-.4-.18-.4-.54a8.12,8.12,0,0,1,.31-1.77,8.17,8.17,0,0,0,.31-1.61c0-.25,0-.38-.12-.38s-.36.18-.6.55S59,6,58.65,6.59s-.53,1-.61,1.19l-.19.42c-.06.1-.11.21-.18.32q-.37.63-1,0a.92.92,0,0,1-.32-.59s.06-.34.2-.92a9.11,9.11,0,0,0,.19-2c0-.31,0-.47-.1-.47s-.21.1-.34.29-.32.54-.59,1-.49.92-.68,1.25c-.67,1.14-1.19,1.72-1.54,1.72-.17,0-.39-.15-.65-.45a1.24,1.24,0,0,1-.39-.68,5.6,5.6,0,0,1,.27-1.12,9.51,9.51,0,0,0,.35-1.91c.05-.67.1-1.19.14-1.57s.14-.56.28-.56a1.27,1.27,0,0,1,.88.38,1,1,0,0,1,.43.69,10.3,10.3,0,0,1-.52,2.47A12.26,12.26,0,0,1,55.68,3.4a1.66,1.66,0,0,1,1.18-.74c.2,0,.46.2.77.58a1.74,1.74,0,0,1,.46,1.07c0,.34,0,.63,0,.87a5.24,5.24,0,0,1,1.13-1.72A2.07,2.07,0,0,1,60.62,2.66Z"/><path class="cls-1" d="M66.73,2.68c.3,0,.62.26,1,.79a3,3,0,0,1,.51,1.58,2.3,2.3,0,0,1-.41,1.14,6,6,0,0,1-1,1.24,5.87,5.87,0,0,1-1.43,1,3.32,3.32,0,0,1-1.54.41h-.14c-.51,2.1-.86,3.15-1.07,3.15s-.35-.14-.53-.42a1.38,1.38,0,0,1-.29-.7,12.33,12.33,0,0,1,.35-1.69,29,29,0,0,0,1-6.34.32.32,0,0,1,.35-.36,1.34,1.34,0,0,1,.73.33,1.35,1.35,0,0,1,.56.84A2.94,2.94,0,0,1,66.73,2.68Zm-.94,3.69a2.33,2.33,0,0,0,.83-1.47c0-.42-.11-.63-.34-.63a1.54,1.54,0,0,0-1.07.58,4.13,4.13,0,0,0-.51.71,5.84,5.84,0,0,0-.48,1.09L64,7.4A3.4,3.4,0,0,0,65.79,6.37Z"/><path class="cls-1" d="M73.93,5.45a.5.5,0,0,1,.22.35,2.84,2.84,0,0,1-.15.64c-.09.33-.16.59-.19.77s-.06.32-.08.42,0,.19,0,.25,0,.13,0,.22l-.05.21s0,.11,0,.18a.91.91,0,0,1-.06.16l-.09.11a.27.27,0,0,1-.24.1c-.11,0-.25-.12-.41-.34a2.21,2.21,0,0,1-.37-.82,3.07,3.07,0,0,1-1.89,1.16,1.7,1.7,0,0,1-1.12-.57,1.61,1.61,0,0,1-.6-1.14,4,4,0,0,1,.52-1.63,7.26,7.26,0,0,1,1.41-2,2.53,2.53,0,0,1,1.77-.9,1.91,1.91,0,0,1,1.16.59,1.58,1.58,0,0,1,.66,1.08A2.37,2.37,0,0,1,73.93,5.45ZM70.44,7.34a2.28,2.28,0,0,0,1.28-.65,2.79,2.79,0,0,0,1-1.65c0-.1.07-.15.2-.17,0-.45-.1-.68-.23-.68a1.64,1.64,0,0,0-1.07.62,6,6,0,0,0-1,1.33,2.67,2.67,0,0,0-.38,1.05.17.17,0,0,0,0,.12A.24.24,0,0,0,70.44,7.34Z"/><path class="cls-1" d="M79.37,2.66a1.44,1.44,0,0,1,1.1.56,1.84,1.84,0,0,1,.47,1.2,7.47,7.47,0,0,1-.33,2.13,6.73,6.73,0,0,1-.72,1.71c-.26.4-.52.6-.79.6s-.4-.19-.4-.57a7.81,7.81,0,0,1,.39-1.74A6.64,6.64,0,0,0,79.39,5c0-.31,0-.46-.12-.46a.43.43,0,0,0-.3.15c-.1.11-.19.2-.25.28s-.14.18-.22.3l-.22.34c-.06.1-.13.23-.23.38l-.22.39c0,.1-.13.23-.21.39-.75,1.39-1.33,2.09-1.76,2.09-.16,0-.38-.15-.63-.44a1.28,1.28,0,0,1-.39-.64A2,2,0,0,1,75,7.21c.11-.3.2-.52.25-.68A3.51,3.51,0,0,0,75.4,6a4.85,4.85,0,0,0,.09-.57c0-.21,0-.37.06-.48s0-.29,0-.53a10.89,10.89,0,0,1,.18-1.72c.06-.12.11-.17.18-.17a1.26,1.26,0,0,1,.87.38,1,1,0,0,1,.42.69,8.53,8.53,0,0,1-.38,2.13,23.11,23.11,0,0,1,1.42-2.24C78.71,3,79.07,2.66,79.37,2.66Z"/><path class="cls-1" d="M83,2.66a.92.92,0,0,1,.75.48,1.65,1.65,0,0,1,.33.93,10.29,10.29,0,0,1-.41,1.64c-.28.94-.55,1.83-.82,2.67a.58.58,0,0,1-.59.46.62.62,0,0,1-.46-.19.73.73,0,0,1-.2-.52,9.25,9.25,0,0,1,.31-1.58c.2-.85.36-1.57.46-2.16a10.76,10.76,0,0,1,.3-1.31Q82.77,2.66,83,2.66Zm-.18-1.5a1,1,0,0,1,.29-.64.75.75,0,0,1,.55-.33c.18,0,.39.22.64.65a2.25,2.25,0,0,1,.37.94.53.53,0,0,1-.19.45.6.6,0,0,1-.4.16,1.22,1.22,0,0,1-.8-.46A1.26,1.26,0,0,1,82.77,1.16Z"/><path class="cls-1" d="M85.59,4c.62-.9,1.23-1.35,1.84-1.35A2.1,2.1,0,0,1,89,3.29a2.18,2.18,0,0,1,.62,1.55,4.3,4.3,0,0,1-.43,1.84A4.16,4.16,0,0,1,88,8.24a2.66,2.66,0,0,1-1.67.62,1.44,1.44,0,0,1-1.14-.59,2.19,2.19,0,0,1-.48-1.43A4.89,4.89,0,0,1,85.59,4Zm2,2.47A3.46,3.46,0,0,0,88,4.82a1.78,1.78,0,0,0-.22-1.05,3.14,3.14,0,0,0-1,1.26,3.7,3.7,0,0,0-.51,1.68,1.78,1.78,0,0,0,.14.92A2.54,2.54,0,0,0,87.54,6.47Z"/><path class="cls-1" d="M94.61,2.66a1.4,1.4,0,0,1,1.09.56,1.8,1.8,0,0,1,.48,1.2,7.47,7.47,0,0,1-.33,2.13,6.73,6.73,0,0,1-.72,1.71c-.26.4-.53.6-.79.6s-.41-.19-.41-.57a8,8,0,0,1,.4-1.74A6.64,6.64,0,0,0,94.63,5c0-.31,0-.46-.12-.46a.45.45,0,0,0-.31.15c-.1.11-.18.2-.24.28a2.94,2.94,0,0,0-.22.3l-.22.34L93.29,6l-.22.39-.22.39c-.74,1.39-1.32,2.09-1.75,2.09-.17,0-.38-.15-.63-.44a1.28,1.28,0,0,1-.39-.64,2,2,0,0,1,.18-.57c.11-.3.2-.52.25-.68s.09-.32.13-.49a4.85,4.85,0,0,0,.09-.57c0-.21,0-.37,0-.48s0-.29,0-.53A10.89,10.89,0,0,1,91,2.74c0-.12.11-.17.18-.17a1.26,1.26,0,0,1,.87.38,1,1,0,0,1,.42.69,9,9,0,0,1-.38,2.13,23.11,23.11,0,0,1,1.42-2.24C94,3,94.31,2.66,94.61,2.66Z"/></svg>