<?xml version="1.0" encoding="utf-8"?>
<!-- Generator: Adobe Illustrator 22.0.1, SVG Export Plug-In . SVG Version: 6.00 Build 0)  -->
<svg version="1.1" id="Layer_1" xmlns="http://www.w3.org/2000/svg" xmlns:xlink="http://www.w3.org/1999/xlink" x="0px" y="0px"
	 viewBox="0 0 320 319.3" style="enable-background:new 0 0 320 319.3;" xml:space="preserve">
<style type="text/css">
	.st0{fill:#3F4D50;}
	.st1{fill:#283233;}
	.st2{clip-path:url(#SVGID_2_);fill:#283233;}
	.st3{fill:#6D9134;}
	.st4{fill:#88BA41;}
</style>
<g>
	<path class="st0" d="M319.8,159.9c0,88.3-71.6,159.9-159.9,159.9S0,248.2,0,159.9S71.6,0,159.9,0S319.8,71.6,319.8,159.9"/>
	<path class="st1" d="M171.5,37.6"/>
	<g>
		<g>
			<defs>
				<path id="SVGID_1_" d="M319.8,159.9c0,88.3-71.6,159.9-159.9,159.9S0,248.2,0,159.9S71.6,0,159.9,0S319.8,71.6,319.8,159.9"/>
			</defs>
			<clipPath id="SVGID_2_">
				<use xlink:href="#SVGID_1_"  style="overflow:visible;"/>
			</clipPath>
			<polygon class="st2" points="171.9,37.6 333.7,133.7 332.4,212.1 288.9,333 199.3,333 118.9,285.1 149.4,272 149.5,235.6 
				74,190.7 			"/>
		</g>
	</g>
	<path class="st3" d="M219.9,108.9c1.1-3.1,1.7-6.5,1.7-10c0-15.7-11.8-28.4-26.4-28.4c-0.4,0-0.8,0-1.2,0
		c-2.3-21.2-20.1-37.7-41.6-37.7c-23.1,0-41.9,19-41.9,42.4s18.7,42.4,41.9,42.4c7.1,0,13.8-1.8,19.6-5c0.1,0.2,0.2,0.4,0.3,0.6
		c-11.8,8.6-19.6,22.7-19.6,38.6c0,26.3,21,47.6,47,47.6s47-21.3,47-47.6C246.8,132.9,235.8,116.5,219.9,108.9z"/>
	<path class="st4" d="M213.1,113c1.7-3.5,2.7-7.4,2.7-11.5c0-14.1-11.5-25.6-25.6-25.6c-1.4,0-2.9,0.1-4.2,0.4c0-0.1,0-0.2,0-0.4
		c0-22.4-18.1-40.5-40.5-40.5S105,53.5,105,75.9c0,0.1,0,0.3,0,0.4c-1.5-0.3-3.1-0.4-4.7-0.4c-14.1,0-25.6,11.5-25.6,25.6
		c0,4.4,1.1,8.6,3.1,12.3c-14.4,7.7-24.1,22.8-24.1,40.2c0,25.1,20.4,45.5,45.5,45.5c9.8,0,18.8-3.1,26.3-8.4c5,5.2,12,8.4,19.8,8.4
		c8.2,0,15.6-3.6,20.6-9.3c7.6,5.8,17.2,9.3,27.5,9.3c25.1,0,45.5-20.4,45.5-45.5C238.8,136,228.4,120.4,213.1,113z"/>
	<path class="st3" d="M156.6,179.5l61.6-49.1L154,166.1l-1.2-18.8l13.4-34.5L152,134.6l-3.1-47.8l-2.4,37.4l-12.7-12.6l12.3,18.9
		l-0.9,14.5l-0.1,0.1l0,0l-1.3,20.8l-33.4-16l30.8,29.4c0,0,0,53.4-0.3,71.2c-0.2,12.3-1.6,33.2-1.6,33.2h20.1c0,0-2.2-21-2.6-33.4
		C156.4,232.7,156.6,179.5,156.6,179.5z"/>
	<g>
		<path class="st3" d="M214.4,250.4c0.4-1.2,0.6-2.5,0.6-3.9c0-6.2-4.5-11.2-10.1-11.2c-0.1,0-0.3,0-0.4,0
			c-0.9-8.3-7.7-14.8-15.9-14.8c-8.8,0-16,7.5-16,16.7s7.2,16.7,16,16.7c2.7,0,5.3-0.7,7.5-1.9c0,0.1,0.1,0.2,0.1,0.2
			c-4.5,3.4-7.5,8.9-7.5,15.2c0,10.3,8,18.7,18,18.7c9.9,0,18-8.4,18-18.7C224.7,259.9,220.5,253.4,214.4,250.4z"/>
		<path class="st4" d="M211.9,252.1c0.7-1.4,1-2.9,1-4.5c0-5.6-4.4-10.1-9.8-10.1c-0.6,0-1.1,0-1.6,0.1v-0.1
			c0-8.8-6.9-15.9-15.5-15.9s-15.5,7.1-15.5,15.9c0,0.1,0,0.1,0,0.2c-0.6-0.1-1.2-0.2-1.8-0.2c-5.4,0-9.8,4.5-9.8,10.1
			c0,1.7,0.4,3.4,1.2,4.8c-5.5,3-9.2,8.9-9.2,15.8c0,9.9,7.8,17.9,17.4,17.9c3.7,0,7.2-1.2,10-3.3c1.9,2,4.6,3.3,7.6,3.3
			c3.1,0,5.9-1.4,7.9-3.6c2.9,2.3,6.6,3.6,10.5,3.6c9.6,0,17.4-8,17.4-17.9C221.7,261.1,217.7,255,211.9,252.1z"/>
		<path class="st4" d="M164.7,233.5c0-5,4-9,9-9l0,0c5,0,9,4,9,9l0,0c0,5-4,9-9,9l0,0C168.7,242.5,164.7,238.5,164.7,233.5
			L164.7,233.5z"/>
	</g>
	<g>
		<path class="st4" d="M141.9,271.2c0.3-0.6,0.5-1.3,0.5-2c0-2.4-2-4.4-4.4-4.4c-0.2,0-0.5,0-0.7,0.1c0,0,0,0,0-0.1
			c0-3.8-3.1-6.9-6.9-6.9c-3.8,0-6.9,3.1-6.9,6.9v0.1c-0.3,0-0.5-0.1-0.8-0.1c-2.4,0-4.4,2-4.4,4.4c0,0.8,0.2,1.5,0.5,2.1
			c-2.5,1.3-4.1,3.9-4.1,6.9c0,4.3,3.5,7.8,7.8,7.8c1.7,0,3.2-0.5,4.5-1.4c0.9,0.9,2.1,1.4,3.4,1.4c1.4,0,2.7-0.6,3.5-1.6
			c1.3,1,2.9,1.6,4.7,1.6c4.3,0,7.8-3.5,7.8-7.8C146.3,275.2,144.5,272.5,141.9,271.2z"/>
	</g>
</g>
</svg>
