<svg version="1.1" id="map" xmlns:svg="http://www.w3.org/2000/svg"
xmlns="http://www.w3.org/2000/svg" xmlns:xlink="http://www.w3.org/1999/xlink" x="0px" y="0px" viewBox="0 0 656.9 482"
xml:space="preserve">
<g id="Canada" transform="translate(-959.79,0.708441)">
<g id="CA-BC">
    <title>British Columbia</title>
   <path d="M1035.7,389.1c-6.4-4.1-16-16.6-16-20.9c0-2.4-0.6-3.2-2.9-4.1c-3-1.1-5.2-5-6.6-11.2
       c-0.3-1.7-1.6-4.6-2.9-6.5s-3-5.5-4-8s-3.6-7.5-5.8-11.3c-2.4-4.1-4.6-9.2-5.3-13c-0.7-3.4-1.9-7.7-2.6-9.5
       c-1.3-3.1-1.2-3.4,1.6-5.7c1.6-1.3,3.8-2.5,4.9-2.5c2,0,7.9,5.7,17.6,16.9c3,3.5,6,6.9,6.5,7.5c0.6,0.6,2.6,3.1,4.5,5.6
       s3.7,4.7,4,5c1.4,1.2,3.9,10,4.6,15.9c0.6,5.6,1.3,7.2,5.6,12.9c5.8,7.6,6.3,8.7,7.2,16.6c0.4,3.2,1.3,7.6,2.1,9.7
       c0.7,2.1,1.1,4.1,0.7,4.4C1047.5,392.3,1039,391.2,1035.7,389.1z"/>
   <path d="M1194.2,426.8c-0.9-0.3-21.5-6.7-37.5-11.7c-5.5-1.7-63.9-23.6-88-33c-4.1-1.6-8.8-3.4-10.5-4
       c-3.8-1.4-4.5-2.4-4.5-7c0-2.6-0.7-4.3-2.1-5.5c-5.8-4.8-7.9-7.2-7.9-9.1c0-1.2-0.4-2.1-0.9-2.1c-2.4,0-5.9-5.3-6.5-9.9
       c-1-7.5-4.3-14-10.2-20c-5.3-5.4-5.3-5.5-4.8-10.2c0.5-3.9,0.3-4.8-0.9-4.8c-0.8,0-1.7-0.4-1.9-0.8c-0.2-0.4-2.5-2-5.1-3.5
       s-4.8-3.3-4.8-4s-0.3-2.1-0.5-3.2c-0.6-2.7-0.6-4.5-0.5-15.2c0.1-9,0.2-9.3,3.2-11.8c2.8-2.4,3-2.8,1.9-5.7
       c-0.6-1.7-1.1-4.9-1.1-7.1c0-3-1-5.3-4-9.7c-3.4-4.8-3.9-6.3-3.5-9.2c0.3-1.9,1.5-4.2,2.6-5.1c2.3-1.9,2.1-3.5-1.4-10.3
       c-1.7-3.4-2-5.9-2-17c0-12.5,0.1-13,2.6-15.5c1.4-1.4,4.9-3.4,7.9-4.5c7.2-2.7,12.9-7.8,12.9-11.6c0-4,2.2-8.7,5.9-12.8
       c2.8-3.1,3.1-4.1,3.1-9.6c0-5.6-0.3-6.4-3-8.8c-3.4-3.1-9.4-14.4-11.1-20.9c-1-3.9-0.8-6,1.6-15.7c2.4-9.9,2.6-11.9,1.6-16.9
       c-0.6-3.1-1.3-9.9-1.7-15.2c-0.3-5.2-0.8-10.4-1-11.6c-0.2-1.2-0.7-3.9-1-6s-1.9-9.5-3.5-16.4s-3.2-13.5-3.5-14.7
       c-0.3-1.4-1.9-2.8-4.2-3.8c-7-2.9-7.9-2.9-9.9,0.4c-1.3,2.2-3.4,3.6-7.9,5.2c-3.3,1.2-7.8,3-10,4.1c-2.2,1-4,1.9-4.2,1.9
       c-0.1,0,0.2-1.5,0.6-3.2c1.4-5,0.5-17-1.5-20c-2.1-3.1-1.8-12.4,0.4-12c0.7,0.2,10.8,6.5,22.5,14.1c31.7,20.7,66.3,41.8,83.1,50.6
       c8.2,4.3,15.4,8.1,16,8.5c2.7,1.9,33.6,17.5,45,22.8c7.2,3.3,22.7,9.7,34.5,14.2c11.8,4.6,21.9,8.6,22.3,9s0.3,1.8-0.2,3.1
       c-0.6,1.3-5.8,15.7-11.6,31.9c-5.8,16.2-12.3,34.2-14.5,40c-23.1,63-28,77.3-28,82.3c0,3-0.6,6.1-1.5,7.3
       c-2.2,3.1-0.9,7.4,2.8,9.8c4.7,3,10.7,14.2,11.4,21.2c0.4,3.8,1.5,7.2,3.4,10.2c1.6,2.5,2.8,4.9,2.8,5.5c0,0.5,1.1,2.1,2.4,3.6
       c1.3,1.4,2.9,4.7,3.6,7.3s1.7,5,2.2,5.3c1.3,0.8,5.4,9.4,6.3,12.9c0.4,1.7,3.9,9.5,7.8,17.4c4.1,8.3,7.1,15.7,7.1,17.5
       c0,1.7-0.8,7.3-1.7,12.5c-1.8,9.7-1.5,13.8,1.1,17.9C1196,426.5,1195.9,427.3,1194.2,426.8z"/>
   <path d="M964.9,238.1c-4.1-9.4-5.6-20.6-4.9-36.6c0.4-9.3,1-14.9,1.9-15.9c0.7-0.8,1.3-2.3,1.3-3.1
       c0-2.6,4.3-2.5,8.3,0.2c4.8,3.2,11.2,9.6,11.2,11.1c0,0.7-4.1,5.4-9,10.6c-10.5,11-10.7,11.5-6.5,26.5c1.4,4.9,2.5,9.8,2.5,10.7
       C969.7,245.1,967.1,243.2,964.9,238.1z"/>
</g>
<g id="CA-AB">
    <title>Alberta</title>
    <path d="M1248.2,441.4c-53.5-14.1-47.8-12-50.9-19.1l-2.7-6l2.2-11.1c2.3-11.7,2.2-14.6-0.9-20.7
        c-1-2.1-4-7.9-6.5-12.9s-5.6-12-6.7-15.5c-1.2-3.5-3.4-8.3-5-10.7s-3.2-6-3.6-8s-1.9-5.1-3.5-6.9c-1.6-1.8-2.9-3.8-2.9-4.3
        s-0.9-2.4-2.1-4c-1.2-1.7-2.5-5.8-3-9.6c-0.6-4.2-1.8-8-3.4-10.2c-1.3-1.9-2.9-4.7-3.4-6.2c-0.6-1.5-2.6-3.7-4.5-5
        c-3.5-2.3-4.8-5.9-2.6-7.3c0.6-0.3,1-3.1,1-6.2c0-5.4,6.6-24.3,51.2-146.9l4-11.1l22.1,7.4c12.2,4.1,30.7,9.9,41.1,12.9
        s28.9,8.5,40.9,12c12.1,3.5,22,6.5,22.2,6.7c0.7,0.7-3,15.3-4,16c-0.6,0.4-2.2,1-3.5,1.4c-2.5,0.7-13,11-13.1,12.9
        c0,0.6,1.6,1.8,3.5,2.8c3.4,1.6,3.7,1.6,6.4-0.3c1.6-1.1,3.2-3,3.5-4.1c0.4-1.1,0.9-1.8,1.1-1.6c0.3,0.3-1.3,7.8-3.5,16.8
        c-5.1,21.3-10.6,44.3-18.2,75.9c-3.3,14-7.2,30-8.5,35.5c-6.7,27.7-12.6,52.5-15.8,66c-17,71.2-15.5,65.6-16.5,65.4
        C1262.5,445.2,1255.9,443.5,1248.2,441.4z"/>
   </g>
<g id="CA-SK">
    <title>Saskatchewan</title>
    <path d="M1408.6,472c-0.2-0.2-4-0.7-8.4-1.1s-9.1-0.8-10.5-1s-5.4-0.7-9-1s-7.6-0.8-9-1s-5.4-0.7-9-1
        s-17.5-3.1-31-6.2s-25.2-5.6-26-5.8c-4.5-1-7.1-1.6-13-2.9c-3.6-0.8-7.4-1.7-8.5-1.9s-5.5-1.2-9.8-2.1c-6.3-1.4-7.7-2.1-7.3-3.4
        c0.5-1.5,8.3-33.8,9-37.1c0.2-0.8,1.7-7.3,3.5-14.5c1.7-7.2,4.7-19.8,6.7-28s5.8-24.2,8.5-35.5s5.2-21.4,5.4-22.5
        c0.2-1.1,1.8-7.6,3.4-14.5c1.7-6.9,5.1-21.1,7.6-31.5c2.5-10.5,6.1-25.3,7.9-33s5-20.8,7-29.2l3.7-15.2l5.2,0.4
        c2.8,0.2,7.4,0.8,10.1,1.2c2.7,0.4,8.4,0.3,12.7-0.2c7.3-0.9,8.1-0.8,13.8,1.8c5.7,2.5,8.1,2.7,8.1,0.6c0-1.1-21.2-11.5-26.5-12.9
        c-2.2-0.6-5-1.1-6.2-1.1s-3.2-0.9-4.2-2c-2.2-2.2-5.1-2.6-8.1-1c-2.3,1.2-2.3,0.9-0.8-6c0.9-4,1.4-5,2.8-4.6
        c1.5,0.4,8.5,1.9,15.2,3.1c1.3,0.3,3.3,0.6,4.4,0.9c3.3,0.7,44.8,8.8,47.5,9.2c1.4,0.2,7.9,1.5,14.5,2.8s13.8,2.6,16,2.8
        c3.9,0.4,4,0.5,3.8,3.8c-0.1,1.9-1.3,11.8-2.7,21.9s-2.9,20.8-3.2,23.5c-0.6,4.9-1.8,7.5-3.5,7.5c-1.5,0-7.5,6.6-8.8,9.8
        c-0.9,2.3-1,4-0.2,6.4c2.2,7.1,1.8,10.5-1.6,14c-2.2,2.3-2.9,3.7-2.3,4.7c0.7,1.1,1.5,0.9,4-1.3c1.7-1.5,3.8-2.7,4.6-2.7
        c1.5,0,1.5,3.2-0.1,23c-0.2,3-0.7,9.5-1,14.5s-0.8,11-1,13.5s-0.7,9-1,14.5s-0.8,11.6-1,13.5s-0.7,8.5-1,14.5s-0.8,12.1-1,13.5
        s-0.7,7.9-1,14.5c-0.4,6.6-0.8,12.7-1,13.5s-0.6,7.1-1,14s-0.8,13.2-1,14s-0.6,7.1-1,14s-0.9,13.3-1.1,14.3s-0.4,4.7-0.5,8.2
        C1411.4,471.7,1410.4,473.7,1408.6,472z"/>
</g>
<g id="CA-MB">
    <title>Manitoba</title>
    <path d="M1441.9,179.2l-0.7,6.3c-0.4,3.5-0.9,7-1,7.8s-0.6,4-1,7s-0.9,6.2-1,7s-1,7.3-2,14.4
        c-1.6,12.2-1.6,13.1,0,15.8c1.7,2.8,1.6,2.9-1.1,6.4c-1.6,2-3.3,4.3-4,5.2c-0.6,0.9-1.5,7.5-1.8,14.6s-0.8,14.8-1,17s-0.6,8-1,13
        s-0.8,11.7-1.1,15c-1,13.7-1.5,19.4-2,27c-0.3,4.4-0.8,10.2-1,13s-0.7,9.5-1,15s-0.8,11.8-1,14s-0.6,8.7-1,14.5s-0.8,12.1-1,14
        s-0.6,8.7-1,15s-0.8,12.2-1,13c-0.5,2.7-1.9,25.4-1.9,32l-0.1,6.5l6,0.6c9.6,1,18.8,2,21.5,2.4c1.4,0.2,5,0.6,8,1
        c5.8,0.6,9.1,1,18,2.1c3,0.4,9.8,1,15,1.3s14.1,0.8,19.7,0.9l10.1,0.3l0.6-4.8c0.3-2.6,0.8-10.2,1.1-16.8c0.3-6.6,0.7-15.2,1-19
        c0.2-3.8,0.7-13.8,1-22c1.1-28.6,1.4-31.5,3.8-35.5c1.2-2,8.3-10.2,15.8-18.1s15.6-16.6,18-19.3s4.9-5.5,5.4-6.1
        c9.6-10.8,14.3-16.2,19.4-22.4c3.4-4.1,9.4-10.9,13.2-15.1s8.5-9.4,10.3-11.5c1.9-2.1,5.7-6.3,8.5-9.4s5.1-6,5.1-6.6
        c0-1.1-5.2-3.3-9.8-4c-6.9-1.1-8.8-1.8-10-3.4c-1-1.4-2.6-1.7-7.3-1.6c-3.3,0.1-6.4,0.6-6.8,1.2c-0.8,1.2-12.4,2.7-14.6,1.8
        c-1-0.4-1.2-1.2-0.7-2.7c0.8-2.1,0.6-3.3-2.2-16.8c-2-9.6-2.6-12.5-3.2-18c-0.8-6.3-3.4-8.2-13.8-10.4c-6.7-1.4-9-2.3-9.8-3.9
        c-1.2-2.3-1.2-10.2,0.1-20.9l0.8-6.8l-5.3-0.1c-2.9-0.1-5.7-0.2-6.1-0.3s-4.1-0.5-8.2-1s-8.2-0.9-9-1.1c-0.8-0.1-4.6-0.6-8.4-1
        s-7.9-0.9-9-1.1s-4.8-0.6-8.1-0.9s-9.6-1-14-1.5s-10.7-1.2-14-1.5s-8.1-0.8-10.7-1.2L1441.9,179.2z M1470.5,351.1
        c3.9,0,6.4,1.8,8.4,5.7c1.2,2.3,2.4,4.3,2.8,4.6c1.9,1.3,6.4,13.5,5.6,14.8c-0.5,0.9,1.3,6.4,3.2,9.9c0.7,1.2,1.1,4.6,1,7.5
        c-0.2,5.6,3.1,17.8,6.2,23.2c1.3,2.2,1.8,5.7,2.1,12.5c0.3,9.4,0.2,9.5-2.1,9.8c-1.3,0.2-3.2,1.4-4.3,2.8c-2.2,2.8-4,3-6.1,1
        c-1.7-1.7-1.2-8.9,0.9-12c0.7-1.1,1.6-3.3,1.8-4.9c0.3-1.6,1.1-3.5,1.8-4.3c2-2.4,1.9-4.8-0.2-6.1c-1.6-1-2.1-0.9-3.2,0.8
        c-1.4,2.2-3.8,2.7-3.8,0.8c0-0.6,0.5-2.6,1.2-4.3c2.7-7.4-1.7-13.9-8-11.7c-2.6,0.9-3.3,0.7-5-1.1c-1.1-1.2-2.6-4.3-3.5-6.9
        s-2.7-6.2-4-8c-1.7-2.3-2.3-4.2-2-6.3c0.4-2.7,0-3.2-4.4-5.6c-6.5-3.4-9.1-2.4-9.3,3.5c-0.1,2.3-0.3,6.3-0.5,9.1
        c-0.9,13.7-0.9,13.8,3.2,17c8.8,7,9.5,7.9,10.9,14c0.8,3.3,1.4,7.6,1.3,9.6c0,2,1.2,5.9,2.6,8.7c3.3,6.6,3.5,11.7,0.3,12.6
        c-3.3,0.9-4.6,0.8-5.3-0.5c-0.7-1.1-3.4-13.8-5.4-24.8c-1.1-6.2-2.6-8.1-9.5-12.6c-5.5-3.6-8.2-6.4-7.9-8.3
        c0.1-0.7,0.2-2.1,0.3-3.2s0.7-2.5,1.5-3.3c0.9-0.9,1.3-3.7,1.3-8c0-6.6,0-6.6-3.8-8.8c-4.3-2.4-5.8-4.7-5.8-8.5
        c0-2.1,0.5-2.6,2.5-2.6c3.7,0,5-3.2,2.5-6.3c-1.1-1.4-2-3-2-3.6c0-1.3,4.7-3.4,7.4-3.2c2.4,0.1,7.6,5,7.6,7.2c0,0.9,1,2.6,2.3,3.8
        l2.3,2.2l1.3-3.6c2.2-6.2,6.3-11.3,9.6-12.1C1467.8,351.3,1469.2,351.1,1470.5,351.1z"/>
</g>
</g>
</svg>
